<?xml version="1.0" encoding="iso-8859-1"?>
<!-- Generator: Adobe Illustrator 19.0.0, SVG Export Plug-In . SVG Version: 6.00 Build 0)  -->
<svg version="1.1" id="Capa_1" xmlns="http://www.w3.org/2000/svg" xmlns:xlink="http://www.w3.org/1999/xlink" x="0px" y="0px"
	 viewBox="0 0 511.999 511.999" style="enable-background:new 0 0 511.999 511.999;" xml:space="preserve">
<circle style="fill:#AC3C33;" cx="292.201" cy="63.35" r="25.858"/>
<path style="fill:#BE6054;" d="M266.342,63.347c0,3.654,0.762,7.13,2.13,10.281c3.152,1.368,6.627,2.131,10.282,2.131
	c14.281,0,25.858-11.577,25.858-25.858c0-3.654-0.762-7.13-2.13-10.281c-3.152-1.368-6.627-2.131-10.282-2.131
	C277.919,37.489,266.342,49.066,266.342,63.347z"/>
<ellipse transform="matrix(-0.7071 -0.7071 0.7071 -0.7071 440.3098 288.3914)" style="fill:#F2CDB7;" cx="279.883" cy="53.005" rx="5.171" ry="10.343"/>
<circle style="fill:#BE6054;" cx="338.745" cy="161.609" r="82.744"/>
<path style="fill:#E1A996;" d="M256.025,159.515c-0.175,7.082,0.542,13.965,2.047,20.55c4.647,20.34,23.465,34.35,44.291,33.107
	c0.292-0.018,0.583-0.036,0.875-0.057c42.305-2.966,75.805-38.056,76.852-80.451c0.175-7.082-0.543-13.965-2.048-20.55
	c-4.647-20.336-23.462-34.345-44.286-33.104c-0.292,0.018-0.583,0.036-0.876,0.057C290.576,82.032,257.074,117.12,256.025,159.515z"
	/>
<path style="fill:#F8E5B5;" d="M361.236,76.615c-7.32-1.94-14.888-2.924-22.493-2.924c-17.301,0-34.045,5.028-48.422,14.54
	c-6.707,4.437-11.117,11.553-12.097,19.524c-0.968,7.869,1.539,15.725,6.877,21.553c9.772,10.667,23.669,16.786,38.128,16.786
	c28.516,0,51.715-23.199,51.715-51.715v-0.11C374.926,86.005,369.289,78.748,361.236,76.615z"/>
<path style="fill:#625143;" d="M212.907,43.669C141.368,31.226,76.142,86.435,76.142,158.75
	c0,62.387,51.204,117.737,116.874,117.737c43.92,0,86.255-24.772,106.529-62.361c16.191-30.02,14.321-60.189,5.594-92.915
	C294.075,79.723,255.465,49.034,212.907,43.669z"/>
<path style="fill:#827061;" d="M262.311,172.753c16.191-30.02,14.321-60.189,5.594-92.915c-0.017-0.063-0.034-0.127-0.051-0.19
	c-3.248-12.073-11.922-21.974-23.337-27.076c-10.009-4.474-20.679-7.525-31.609-8.902C141.368,31.226,76.142,86.435,76.142,158.75
	c0,0.2,0,0.398,0.002,0.597c0.205,38.982,30.165,71.682,68.982,75.277c3.504,0.325,7.059,0.49,10.656,0.49
	C199.701,235.114,242.036,210.342,262.311,172.753z"/>
<path style="fill:#F8E5B5;" d="M245.135,47.204c-65.481-28.018-139.951,1.695-165.658,66.713
	c-2.722,6.886-2.139,14.533,1.601,20.978c10.611,18.284,28.415,31.149,48.855,35.304c0.048,11.833,9.512,19.512,19.364,19.512
	c10.564,0,19.036-8.828,19.012-19.247c0-0.077,0.131-0.241,0.319-0.276c12.473-2.254,24.391-6.627,35.423-12.998
	c0,0,7.841,16.385,23.4,13.435c9.338-1.77,15.612-9.325,15.612-18.802c0-28.069-0.784-30.618,2.96-37.389
	c7.458-13.483,11.938-28.057,13.313-43.317C260.259,60.843,254.552,51.233,245.135,47.204z"/>
<path style="fill:#D9B43A;" d="M494.362,229.224c17.095-33.08-15.394-69.72-50.145-57.429
	c-37.941,13.42-98.911,44.829-188.217,44.743c-89.306,0.086-150.275-31.323-188.217-44.743
	c-34.753-12.292-67.24,24.349-50.145,57.429c9.984,19.319,24.022,37.835,41.368,54.565c8.295,4.209,18.956,8.682,32.589,13.078
	c44.409,14.32,102.795,22.207,164.405,22.207s119.996-7.887,164.405-22.207c13.633-4.396,24.294-8.869,32.589-13.078
	C470.34,267.058,484.378,248.543,494.362,229.224z"/>
<path style="fill:#F3E29A;" d="M255.999,308.994c106.034-0.076,194.937-56.079,234.143-123.798
	c-10.163-12.856-27.732-19.837-45.925-13.401c-37.941,13.42-98.912,44.829-188.217,44.743
	c-89.306,0.086-150.275-31.323-188.217-44.743c-18.194-6.435-35.762,0.545-45.925,13.401
	C61.062,252.916,149.965,308.919,255.999,308.994z"/>
<path style="fill:#A0B7CB;" d="M473.729,266.788H256.014L113.266,422.775h0.022c0,0.649,0.011,1.295,0.034,1.939
	c0.978,27.466,23.86,48.935,50.99,48.935h91.702h91.702c27.13,0,50.012-21.469,50.99-48.935c0.023-0.644,0.034-1.291,0.034-1.939
	h0.022c52.441-26.958,90.607-68.356,104.265-116.537C508.626,286.483,494.017,266.788,473.729,266.788z"/>
<path style="fill:#DAE3DE;" d="M316.357,375.926L316.357,375.926c33.723-44.676,2.279-109.138-53.238-109.138H38.298
	c-20.212,0-34.902,19.585-29.347,39.273c13.616,48.262,51.826,89.724,104.34,116.714h109.109c36.536,0,71.177-16.948,93.502-46.246
	C316.053,376.328,316.205,376.128,316.357,375.926z"/>
<path d="M504.111,274.209c-4.936-6.53-11.609-11.166-19.13-13.486c6.212-8.514,11.671-17.283,16.273-26.187
	c9.351-18.095,6.836-38.888-6.565-54.263c-13.481-15.467-33.809-20.848-53.06-14.04c-3.987,1.41-8.253,3.027-12.715,4.761
	c0.215-2.541,0.331-5.09,0.331-7.637c0-34.472-19.797-66.071-50.639-81.232c-3.447-5.408-8.85-9.527-15.382-11.258
	c-12.187-3.231-25.028-3.974-37.535-2.267c0.702-6.641-0.631-13.447-4.035-19.656c-5.993-10.933-17.003-17.46-29.454-17.46
	c-4.442,0-8.763,0.855-12.839,2.541c-3.958,1.638-5.84,6.175-4.202,10.134c1.638,3.958,6.175,5.838,10.134,4.202
	c2.187-0.905,4.511-1.363,6.908-1.363c6.697,0,12.622,3.515,15.849,9.403c2.804,5.115,3.007,10.973,0.664,16.114
	c-6.011,1.985-11.795,4.566-17.288,7.699c-7.782-9.383-17.221-17.678-28.061-24.544c-3.284-6.05-8.524-11.001-15.177-13.848
	c-34.225-14.644-71.617-14.98-105.286-0.943c-32.58,13.581-57.664,39.129-70.637,71.936c-2.621,6.629-2.927,13.87-0.929,20.651
	c-2.354,10.632-3.301,21.395-2.837,32.147c-18.685-5.828-38.142-0.306-51.187,14.661C3.91,195.65,1.394,216.441,10.745,234.538
	c1.32,2.555,2.728,5.132,4.186,7.66c2.14,3.711,6.884,4.985,10.595,2.845c3.711-2.139,4.985-6.882,2.845-10.594
	c-1.339-2.322-2.632-4.689-3.843-7.034c-7.608-14.722-2.676-28.738,4.478-36.946c7.217-8.28,20.513-15.155,36.19-9.607
	c6.11,2.161,12.897,4.841,20.756,7.944c38.944,15.376,94.558,37.341,169.153,37.339c14.413-0.001,29.548-0.821,45.394-2.669
	c0.04-0.004,0.081-0.01,0.121-0.016c0.002,0,0.005,0,0.007,0c53.235-6.222,94.562-22.513,124.745-34.41
	c7.728-3.046,15.027-5.924,21.432-8.19c15.677-5.543,28.974,1.328,36.19,9.609c7.153,8.207,12.086,22.222,4.476,36.945
	c-5.588,10.812-12.568,21.438-20.734,31.617H38.298c-12.024,0-23.109,5.537-30.417,15.191c-7.395,9.769-9.727,22.142-6.397,33.945
	c13.675,48.471,50.616,90.733,104.232,119.397c1.136,14.287,7.447,27.532,17.941,37.533c11.035,10.518,25.473,16.311,40.653,16.311
	h183.405c15.18,0,29.618-5.793,40.654-16.311c10.491-9.999,16.801-23.24,17.94-37.519c53.542-28.62,90.46-70.82,104.18-119.224
	C513.857,296.472,511.532,284.027,504.111,274.209z M316.189,86.43c13.954-4.087,29.031-4.284,43.06-0.565
	c4.674,1.238,7.938,5.458,7.938,10.263c0,4.285,3.472,7.757,7.757,7.757c2.31,0,4.377-1.015,5.798-2.616
	c20.358,13.807,32.988,37.03,32.988,62.088c0,4.731-0.458,9.466-1.35,14.129c-25.814,10.1-59.09,22.354-99.916,28.705
	c6.6-17.537,7.828-34.789,6.518-50.75c1.414,0.102,2.83,0.159,4.246,0.159c15.615,0,30.374-6.026,41.564-16.968
	c3.063-2.995,3.117-7.908,0.122-10.97c-2.995-3.061-7.906-3.118-10.97-0.122c-8.271,8.09-19.18,12.546-30.715,12.546
	c-2.124,0-4.249-0.175-6.357-0.486c-1.189-6.554-2.68-12.796-4.238-18.637c-2.64-9.899-6.733-19.321-12.107-28.06
	C305.499,90.202,310.74,88.025,316.189,86.43z M158.614,197.525c3.525-1.327,6.767-3.408,9.523-6.171
	c3.609-3.617,6.073-8.057,7.211-12.876c9.002-2.06,17.703-5.169,25.993-9.287c7.911,9.934,19.482,12.651,28.676,10.566
	c12.443-2.824,20.803-13.347,20.803-26.184c0-4.765-0.023-8.798-0.042-12.241c-0.093-16.722,0.001-17.721,2.033-21.396
	c2.073-3.749,0.714-8.469-3.035-10.542c-3.749-2.071-8.469-0.714-10.543,3.036c-4.091,7.397-4.068,11.543-3.97,28.988
	c0.02,3.419,0.041,7.423,0.041,12.154c0,6.699-4.698,10.142-8.722,11.055c-4.889,1.105-11.537-0.681-15.536-9.037
	c-0.933-1.951-2.637-3.423-4.702-4.062c-2.066-0.64-4.304-0.39-6.175,0.692c-10.256,5.924-21.333,9.988-32.946,12.088
	c-3.867,0.711-6.673,4.035-6.673,7.924c0.007,3.061-1.2,5.961-3.399,8.165c-2.128,2.133-4.917,3.307-7.856,3.307
	c-5.682,0-11.578-4.409-11.607-11.787c-0.018-4.274-3.487-7.726-7.757-7.726c-0.01,0-0.022,0-0.032,0
	c-4.284,0.018-7.743,3.504-7.726,7.788c0.025,6.214,1.876,11.512,4.855,15.742c-13.068-4.547-24.862-9.195-35.38-13.348
	c-2.438-0.963-4.826-1.904-7.164-2.82c-0.619-5.89-0.749-11.797-0.395-17.69c1.406,1.132,3.124,1.717,4.854,1.717
	c1.807,0,3.622-0.628,5.092-1.908c3.23-2.814,3.568-7.714,0.754-10.944c-4.497-5.163-7.212-9.92-8.169-12.423
	c-1.456-3.809-1.433-7.995,0.067-11.788c11.419-28.878,33.501-51.365,62.179-63.321c29.771-12.409,62.873-12.094,93.214,0.887
	c3.787,1.62,6.668,4.595,8.244,8.205c0.009,0.02,0.018,0.039,0.027,0.059c1.036,2.399,1.502,5.072,1.255,7.821
	c-0.384,4.268,2.764,8.038,7.031,8.421c3.084,0.282,5.906-1.296,7.38-3.804c15.494,12.913,26.742,29.862,31.624,48.173
	c9.282,34.8,8.408,60.074-3.037,83.534C240.857,214.174,195.705,207.538,158.614,197.525z M495.563,304.122
	c-12.604,44.469-47.039,83.433-97.126,110.054H183.598c-4.284,0-7.757,3.472-7.757,7.757s3.473,7.757,7.757,7.757H390.42
	c-3.338,20.385-21.471,36.201-42.703,36.201H164.311c-21.234,0-39.368-15.817-42.703-36.201h30.962c4.284,0,7.757-3.472,7.757-7.757
	s-3.473-7.757-7.757-7.757h-38.957c-50.17-26.661-84.632-65.688-97.196-110.222c-1.998-7.085-0.601-14.509,3.835-20.37
	c4.348-5.745,10.925-9.039,18.047-9.039H473.73c7.11,0,13.672,3.288,18.005,9.02C496.197,289.469,497.593,296.961,495.563,304.122z"
	/>
<g>
</g>
<g>
</g>
<g>
</g>
<g>
</g>
<g>
</g>
<g>
</g>
<g>
</g>
<g>
</g>
<g>
</g>
<g>
</g>
<g>
</g>
<g>
</g>
<g>
</g>
<g>
</g>
<g>
</g>
</svg>
