<?xml version="1.0" encoding="iso-8859-1"?>
<!-- Generator: Adobe Illustrator 19.0.0, SVG Export Plug-In . SVG Version: 6.00 Build 0)  -->
<svg version="1.1" id="Capa_1" xmlns="http://www.w3.org/2000/svg" xmlns:xlink="http://www.w3.org/1999/xlink" x="0px" y="0px"
	 viewBox="0 0 511.999 511.999" style="enable-background:new 0 0 511.999 511.999;" xml:space="preserve">
<path style="fill:#FEC007;" d="M465.309,217.206l-8.57,10.53l-5.9,7.25l3.75,17.03c0.74,3.38,0.45,6.9-0.83,10.11
	c-4.15,10.31-17.09,33.01-55.07,53.33c-26.54,14.2-65.32,27.24-121.86,34.08c-58.31,7.05-102.69-8.93-135.35-34.08
	c-59.98-46.17-80.4-123.27-74.88-145.45c1.6-6.45,3.51-11.67,5.63-15.89c9.14-18.21,22.22-18.02,31.97-19
	c6.66-0.67,10.73-1.08,16.89,2.85c9.69,6.16,24.57,23.03,62.78,66.4c73.04,82.86,189.52,19.92,217.47,2.9
	c4.06-2.46,8.94-3.17,13.52-1.92l15.94,4.35l3.09-4.24l6.09-8.4c3.18-4.37,9.39-5.14,13.54-1.69l10.53,8.77
	C467.969,207.416,468.529,213.236,465.309,217.206z"/>
<g>
	<path style="fill:#FE9700;" d="M453.759,262.126c-4.15,10.31-17.09,33.01-55.07,53.33c-26.54,14.2-65.32,27.24-121.86,34.08
		c-58.31,7.05-102.69-8.93-135.35-34.08c-59.98-46.17-80.4-123.27-74.88-145.45c1.6-6.45,3.51-11.67,5.63-15.89
		c0.07-0.13,0.13-0.26,0.2-0.39c-2.41,26.48,18.61,97.65,74.33,141.24c32.13,25.15,75.79,41.13,133.15,34.08
		c55.63-6.84,93.78-19.88,119.89-34.08c34.49-18.76,47.99-39.54,53.08-50.74l1.71,7.79
		C455.329,255.396,455.039,258.916,453.759,262.126z"/>
	<path style="fill:#FE9700;" d="M398.689,315.456c-26.54,14.2-65.32,27.24-121.86,34.08c-58.31,7.05-102.69-8.93-135.35-34.08
		H398.689z"/>
	<path style="fill:#FE9700;" d="M121.094,137.963c0.745,12.328-7.569,23.73-20.002,26.464l-2.129,0.468
		c-10.558,2.322-21.061-2.279-26.73-10.78c9.132-18.207,22.217-18.023,31.965-19C110.86,134.449,114.926,134.036,121.094,137.963z"
		/>
</g>
<path style="fill:#B96340;" d="M465.31,217.202l-8.576,10.538l-22.85-22.282l6.097-8.406c3.177-4.364,9.386-5.136,13.534-1.687
	l10.53,8.773C467.97,207.412,468.534,213.237,465.31,217.202z"/>
<path style="fill:#8BCC3F;" d="M83.197,142.225l-3.444-15.659c-1.249-5.679-6.866-9.27-12.545-8.021l-22.407,4.928
	c-5.679,1.249-11.296-2.342-12.545-8.021l0,0c-1.249-5.679,2.342-11.296,8.021-12.545l87.517-19.249
	c5.679-1.249,11.296,2.342,12.545,8.021l0,0c1.249,5.679-2.342,11.296-8.021,12.545l-21.851,4.806
	c-5.679,1.249-9.27,6.866-8.021,12.545l3.444,15.659c1.249,5.679-2.342,11.296-8.021,12.545l-2.127,0.468
	C90.062,151.496,84.446,147.904,83.197,142.225z"/>
<path style="fill:#B96340;" d="M438.431,428.589H73.569c-36.489,0-66.068-29.58-66.068-66.068v-22.318
	c0-4.679,3.793-8.473,8.472-8.473h480.054c4.679,0,8.473,3.793,8.473,8.473v22.318C504.499,399.009,474.919,428.589,438.431,428.589
	z"/>
<path style="fill:#A24223;" d="M504.496,340.205v22.32c0,36.486-29.578,66.064-66.064,66.064H73.574
	c-36.497,0-66.075-29.578-66.075-66.064v-22.32c0.022,36.486,29.589,66.042,66.075,66.042h364.858
	C474.907,406.247,504.474,376.691,504.496,340.205z"/>
<path d="M398.352,245.536c0.533,0,1.076-0.057,1.619-0.177c4.045-0.89,6.603-4.891,5.713-8.937l-0.354-1.611
	c-0.891-4.044-4.889-6.605-8.938-5.713c-4.045,0.89-6.603,4.891-5.713,8.937l0.354,1.611
	C391.805,243.149,394.907,245.536,398.352,245.536z"/>
<path d="M112.335,172.082c-4.046,0.888-6.606,4.888-5.718,8.934l0.354,1.611c0.769,3.504,3.872,5.894,7.318,5.894
	c0.532,0,1.073-0.057,1.614-0.176c4.046-0.888,6.606-4.888,5.718-8.934l-0.354-1.611
	C120.381,173.755,116.381,171.196,112.335,172.082z"/>
<path d="M419.036,251.529c0.533,0,1.075-0.057,1.618-0.177c4.046-0.89,6.604-4.891,5.714-8.936l-0.354-1.611
	c-0.89-4.045-4.884-6.605-8.937-5.713c-4.046,0.89-6.604,4.891-5.714,8.936l0.354,1.611
	C412.488,249.141,415.591,251.529,419.036,251.529z"/>
<path d="M325.988,289.041c0.533,0,1.076-0.057,1.619-0.177c4.045-0.89,6.603-4.891,5.713-8.937l-0.354-1.611
	c-0.891-4.044-4.886-6.605-8.938-5.713c-4.045,0.89-6.603,4.891-5.713,8.937l0.354,1.611
	C319.441,286.654,322.544,289.041,325.988,289.041z"/>
<path d="M134.543,202.041c-3.704,1.854-5.203,6.36-3.349,10.064c0.415,0.829,10.407,20.525,31.366,39.324
	c24.755,22.205,54.45,33.737,86.517,33.737c4.129,0,8.3-0.191,12.502-0.576c4.125-0.377,7.162-4.027,6.785-8.152
	c-0.378-4.125-4.031-7.168-8.152-6.786c-32.848,3.006-62.205-6.762-87.236-29.033c-18.998-16.903-28.282-35.06-28.374-35.241
	C142.744,201.683,138.242,200.188,134.543,202.041z"/>
<path d="M511.999,340.199c0-8.806-7.164-15.97-15.97-15.97h-97.985c43.31-21.999,58.02-47.725,62.674-59.313
	c1.852-4.608,2.266-9.623,1.195-14.51l-2.971-13.492l12.184-14.971c5.796-7.123,4.769-17.695-2.287-23.567l-10.527-8.767
	c-3.561-2.97-8.244-4.347-12.843-3.775c-4.608,0.571-8.819,3.055-11.558,6.818l-6.137,8.449l-10.946-2.986
	c-6.522-1.783-13.587-0.783-19.389,2.748c-31.553,19.203-139.801,75.852-207.934-1.451c-6.303-7.154-11.966-13.577-17.078-19.36
	c-2.743-3.104-7.483-3.395-10.587-0.651s-3.395,7.483-0.651,10.586c5.108,5.777,10.766,12.194,17.063,19.341
	c17.863,20.267,39.609,33.762,64.637,40.108c20.56,5.215,43.423,5.622,67.948,1.211c43.104-7.75,80.377-28.437,94.4-36.971
	c2.292-1.395,5.074-1.793,7.638-1.092l15.95,4.35c1.875,0.511,3.823,0.265,5.469-0.601l12.297,11.992l-1.57,1.93
	c-1.444,1.775-1.999,4.112-1.507,6.347l3.748,17.021c0.422,1.926,0.262,3.896-0.464,5.7c-4.938,12.296-23.361,43.122-87.739,64.905
	H168.806c-40.975-21.901-64.766-57.044-77.539-82.838c-15.932-32.175-19.761-60.052-17.391-69.57
	c1.939-7.791,4.451-13.979,7.5-18.514c0.742,0.67,1.531,1.296,2.391,1.846c2.937,1.877,6.273,2.846,9.677,2.846
	c1.299,0,2.607-0.141,3.907-0.427l2.129-0.468c4.703-1.034,8.722-3.838,11.315-7.896c1.297-2.028,2.16-4.248,2.57-6.548
	c5.21,1.464,11.615,7.162,28.547,25.759c1.48,1.625,3.511,2.451,5.548,2.451c1.802,0,3.609-0.646,5.047-1.954
	c3.063-2.789,3.285-7.532,0.497-10.595c-21.943-24.1-29.799-30.618-41.626-31.048l-1.608-7.309
	c-0.234-1.066,0.153-1.887,0.406-2.282c0.252-0.395,0.835-1.092,1.901-1.327l21.851-4.806c9.709-2.135,15.87-11.771,13.735-21.48
	s-11.771-15.872-21.481-13.735L38.666,95.582c-9.708,2.135-15.869,11.771-13.734,21.48c1.034,4.703,3.839,8.722,7.896,11.316
	c4.057,2.595,8.88,3.454,13.585,2.419l22.407-4.928c1.061-0.232,1.887,0.154,2.282,0.407c0.395,0.252,1.092,0.835,1.326,1.901
	l2.187,9.942c-6.869,6.554-11.9,16.445-15.293,30.077c-4.145,16.644,3.465,49.479,18.504,79.85
	c11.412,23.046,31.046,53.053,62.813,76.182h-41.81c-4.143,0-7.5,3.358-7.5,7.5s3.357,7.5,7.5,7.5h68.059
	c0.008,0,0.017,0.001,0.025,0.001c0.007,0,0.014-0.001,0.022-0.001h193.338c0.008,0,0.017,0.002,0.025,0.002
	s0.016-0.002,0.024-0.002h135.707c0.535,0,0.97,0.435,0.97,0.97v14.821H15v-14.818c0-0.536,0.437-0.973,0.973-0.973h53.862
	c4.143,0,7.5-3.358,7.5-7.5s-3.357-7.5-7.5-7.5H15.973C7.165,324.23,0,331.395,0,340.202v22.318
	c0,40.566,33.003,73.568,73.569,73.568h302.932c4.143,0,7.5-3.358,7.5-7.5s-3.357-7.5-7.5-7.5H73.569
	c-29.752,0-54.377-22.305-58.073-51.068h481.005c-3.696,28.763-28.321,51.069-58.073,51.069h-32.93c-4.143,0-7.5,3.358-7.5,7.5
	s3.357,7.5,7.5,7.5h32.93c40.566,0,73.569-33.002,73.57-73.568v-0.001l0,0l0,0L511.999,340.199L511.999,340.199z M443.762,204.614
	l2.282-3.142c0.394-0.54,0.908-0.707,1.271-0.752c0.355-0.044,0.889-0.009,1.395,0.413l10.533,8.772
	c0.77,0.641,0.882,1.794,0.249,2.571l-3.393,4.169L443.762,204.614z M69.505,110.793c-1.299,0-2.608,0.141-3.908,0.427
	l-22.407,4.928c-1.064,0.233-1.888-0.154-2.281-0.407c-0.395-0.252-1.092-0.835-1.326-1.901c-0.359-1.631,0.676-3.25,2.307-3.609
	l87.517-19.249c1.633-0.363,3.251,0.677,3.609,2.307c0.359,1.631-0.676,3.25-2.308,3.609l-21.851,4.806
	c-4.703,1.035-8.722,3.839-11.316,7.896c-2.594,4.057-3.453,8.882-2.419,13.585l2.926,13.301c0.455,2.343,1.201,4.422-1.333,5.787
	c-1.665,0.896-5.611,1.164-6.191-1.659l-0.26-1.183c-0.011-0.054-0.023-0.108-0.036-0.163l-3.148-14.313
	c-1.034-4.704-3.839-8.723-7.896-11.317C76.245,111.761,72.908,110.793,69.505,110.793z"/>
<g>
</g>
<g>
</g>
<g>
</g>
<g>
</g>
<g>
</g>
<g>
</g>
<g>
</g>
<g>
</g>
<g>
</g>
<g>
</g>
<g>
</g>
<g>
</g>
<g>
</g>
<g>
</g>
<g>
</g>
</svg>
