<?xml version="1.0" encoding="iso-8859-1"?>
<!-- Generator: Adobe Illustrator 19.0.0, SVG Export Plug-In . SVG Version: 6.00 Build 0)  -->
<svg version="1.1" id="Layer_1" xmlns="http://www.w3.org/2000/svg" xmlns:xlink="http://www.w3.org/1999/xlink" x="0px" y="0px"
	 viewBox="0 0 511.999 511.999" style="enable-background:new 0 0 511.999 511.999;" xml:space="preserve">
<g>
	<circle style="fill:#E8A8C2;" cx="130.08" cy="191.96" r="82.34"/>
	<circle style="fill:#E8A8C2;" cx="383.87" cy="191.96" r="82.34"/>
</g>
<circle style="fill:#8D6A59;" cx="256.98" cy="205.85" r="106.37"/>
<path style="fill:#F9EFD1;" d="M256.975,353.329c111.871,0,194.729-37.064,239.854-87.232c19.617-21.81-1.643-55.573-29.757-47.199
	c-61.397,18.289-148.284,37.851-210.098,37.851s-148.7-19.562-210.098-37.851c-28.114-8.374-49.374,25.389-29.756,47.199
	C62.246,316.265,145.104,353.329,256.975,353.329z"/>
<path style="opacity:0.1;enable-background:new    ;" d="M263.67,345.448c-111.871,0-194.729-37.064-239.854-87.232
	c-9.557-10.625-9.41-24.087-3.497-34.132c-11.665,9.679-15.595,28.231-3.198,42.013c45.125,50.168,127.982,87.232,239.854,87.232
	c111.871,0,194.729-37.064,239.854-87.232c1.133-1.259,2.123-2.56,2.99-3.888C453.943,310.337,372.551,345.448,263.67,345.448z"/>
<g>
	<path style="fill:#8D6A59;" d="M118.805,237.731v43.617c0,9.444,7.656,17.099,17.099,17.099s17.099-7.656,17.099-17.099v-36.433
		C141.543,242.716,130.084,240.296,118.805,237.731z"/>
	<path style="fill:#8D6A59;" d="M55.152,221.321v34.477c0,9.444,7.656,17.099,17.1,17.099s17.099-7.656,17.099-17.099v-25.177
		C77.441,227.579,65.965,224.445,55.152,221.321z"/>
	<path style="fill:#8D6A59;" d="M367.354,243.662v36.365c0,7.732,6.268,14,14.001,14c7.732,0,14-6.268,14-14v-42.343
		C386.111,239.788,376.745,241.794,367.354,243.662z"/>
	<path style="fill:#8D6A59;" d="M423.256,230.965v21.18c0,7.732,6.268,14,14.001,14c7.732,0,14-6.268,14-14v-28.673
		C442.278,225.996,432.908,228.511,423.256,230.965z"/>
</g>
<g>
	<path style="fill:#ADD9E8;" d="M338.57,383.896c22.213-5.04,94.19-21.433,146.351-54.306c9.29-5.855,3.329-20.178-7.349-17.618
		c-45.519,10.912-122.845,25.501-229.038,25.501s-183.519-14.59-229.038-25.502c-10.595-2.54-16.69,11.723-7.476,17.538
		c52.171,32.926,124.247,49.342,146.478,54.386l0,0H338.57V383.896z"/>
	<path style="fill:#ADD9E8;" d="M328.202,412.514H168.867c-5.726,0-10.368-4.642-10.368-10.368v-18.25H338.57v18.25
		C338.57,407.872,333.928,412.514,328.202,412.514z"/>
</g>
<path style="opacity:0.1;enable-background:new    ;" d="M328.202,412.514H168.867c-5.726,0-10.368-4.642-10.368-10.368v-18.25
	H338.57v18.25C338.57,407.872,333.928,412.514,328.202,412.514z"/>
<g>
	<path style="fill:#E8A8C2;" d="M202.967,209.98h-17.019c-4.142,0-7.499-3.357-7.499-7.499s3.357-7.499,7.499-7.499h17.019
		c4.142,0,7.499,3.357,7.499,7.499C210.466,206.624,207.109,209.98,202.967,209.98z"/>
	<path style="fill:#E8A8C2;" d="M326.008,209.98H308.99c-4.142,0-7.499-3.357-7.499-7.499s3.357-7.499,7.499-7.499h17.018
		c4.142,0,7.499,3.357,7.499,7.499C333.507,206.624,330.15,209.98,326.008,209.98z"/>
</g>
<path d="M307.377,189.892c4.142,0,7.499-3.357,7.499-7.499c0-1.446,1.176-2.622,2.622-2.622s2.622,1.176,2.622,2.622
	c0,4.142,3.357,7.499,7.499,7.499s7.499-3.357,7.499-7.499c0-9.716-7.904-17.62-17.62-17.62s-17.62,7.904-17.62,17.62
	C299.878,186.535,303.235,189.892,307.377,189.892z M502.404,271.112c11.261-12.52,12.737-29.785,3.757-43.983
	c-7.674-12.137-20.66-18.309-34.349-16.808c1.252-6.011,1.904-12.146,1.904-18.358c0-49.539-40.304-89.843-89.843-89.843
	c-19.047,0-37.585,6.101-52.895,17.266c-19.918-17.071-45.775-27.399-74.003-27.399c-28.227,0-54.085,10.328-74.002,27.398
	c-15.312-11.164-33.849-17.265-52.895-17.265c-49.54,0-89.844,40.304-89.844,89.843c0,6.212,0.652,12.347,1.904,18.357
	c-13.688-1.501-26.674,4.672-34.349,16.808c-8.979,14.199-7.504,31.463,3.757,43.983c14.415,16.026,32.308,30.427,52.911,42.707
	c-14.652-2.713-29.07-5.748-43.212-9.139c-8.347-2.002-16.501,2.136-19.84,10.055c-3.323,7.879-0.604,16.563,6.615,21.118
	c34.345,21.677,82.428,39.837,142.98,54.012v12.282c0,9.852,8.015,17.867,17.867,17.867h159.335c9.852,0,17.867-8.015,17.867-17.867
	v-12.282c60.479-14.158,108.517-32.291,142.85-53.93c7.289-4.594,10.049-13.336,6.709-21.259
	c-3.322-7.883-11.467-12.001-19.804-9.995c-6.039,1.448-12.145,2.811-18.279,4.136C474.788,297.668,489.939,284.971,502.404,271.112
	z M383.873,117.118c41.27,0,74.845,33.575,74.845,74.845c0,7.716-1.174,15.293-3.48,22.579
	c-26.706,7.669-57.474,15.367-88.462,21.559c2.701-9.804,4.068-19.93,4.068-30.246c0-29.085-10.966-55.653-28.975-75.8
	C354.21,121.678,368.851,117.118,383.873,117.118z M256.975,106.985c54.517,0,98.87,44.353,98.87,98.87
	c0,11.502-1.955,22.727-5.806,33.431c-33.178,6.005-65.793,9.964-93.064,9.964s-59.885-3.959-93.064-9.964
	c-3.851-10.704-5.806-21.929-5.806-33.431C158.105,151.338,202.458,106.985,256.975,106.985z M130.078,117.118
	c15.021,0,29.662,4.559,42.003,12.937c-18.008,20.147-28.975,46.715-28.975,75.8c0,10.316,1.368,20.443,4.068,30.246
	c-30.988-6.192-61.756-13.89-88.462-21.559c-2.306-7.286-3.48-14.863-3.48-22.579C55.232,150.693,88.807,117.118,130.078,117.118z
	 M331.071,402.147c0,1.582-1.287,2.869-2.869,2.869H168.867c-1.582,0-2.869-1.287-2.869-2.869v-10.751H331.07v10.751H331.071z
	 M479.321,319.265c0.486-0.115,1.786-0.429,2.487,1.235c0.728,1.729-0.486,2.495-0.886,2.747
	c-33.838,21.326-82.016,39.207-143.194,53.151H159.341c-61.256-13.959-109.468-31.866-143.317-53.229
	c-0.41-0.259-1.5-0.946-0.801-2.605c0.729-1.728,2.08-1.404,2.526-1.299c71.159,17.058,148.807,25.708,230.785,25.708
	C330.513,344.973,408.162,336.323,479.321,319.265z M407.789,318.069c-50.598,7.909-103.909,11.905-159.254,11.905
	c-45.9,0-90.396-2.754-133.111-8.203c-38.027-14.544-70.081-35.514-92.727-60.69c-8.067-8.969-6.443-19.279-2.232-25.937
	c4.19-6.626,12.767-12.486,24.272-9.06c61.935,18.45,150.215,38.163,212.238,38.163s150.303-19.713,212.239-38.163
	c11.505-3.425,20.082,2.433,24.272,9.06c4.21,6.658,5.835,16.969-2.232,25.937C470.524,284.128,441.674,303.815,407.789,318.069z
	 M184.337,189.892c4.142,0,7.499-3.357,7.499-7.499c0-1.446,1.176-2.622,2.622-2.622s2.622,1.176,2.622,2.622
	c0,4.142,3.357,7.499,7.499,7.499s7.499-3.357,7.499-7.499c0-9.716-7.904-17.62-17.62-17.62c-9.716,0-17.62,7.904-17.62,17.62
	C176.838,186.535,180.195,189.892,184.337,189.892z M246.043,200.175c3.69,0,7.114-1.152,9.935-3.115
	c2.821,1.963,6.245,3.115,9.935,3.115c9.613,0,17.434-7.821,17.434-17.434c0-4.142-3.357-7.499-7.499-7.499
	s-7.499,3.357-7.499,7.499c0,1.344-1.093,2.436-2.436,2.436c-1.344,0-2.436-1.093-2.436-2.436c0-4.142-3.357-7.499-7.499-7.499
	s-7.499,3.357-7.499,7.499c0,1.344-1.093,2.436-2.436,2.436s-2.436-1.093-2.436-2.436c0-4.142-3.357-7.499-7.499-7.499
	s-7.499,3.357-7.499,7.499C228.608,192.354,236.43,200.175,246.043,200.175z"/>
<g>
</g>
<g>
</g>
<g>
</g>
<g>
</g>
<g>
</g>
<g>
</g>
<g>
</g>
<g>
</g>
<g>
</g>
<g>
</g>
<g>
</g>
<g>
</g>
<g>
</g>
<g>
</g>
<g>
</g>
</svg>
