<?xml version="1.0" encoding="iso-8859-1"?>
<!-- Generator: Adobe Illustrator 19.0.0, SVG Export Plug-In . SVG Version: 6.00 Build 0)  -->
<svg version="1.1" id="Capa_1" xmlns="http://www.w3.org/2000/svg" xmlns:xlink="http://www.w3.org/1999/xlink" x="0px" y="0px"
	 viewBox="0 0 512 512" style="enable-background:new 0 0 512 512;" xml:space="preserve">
<g>
	<polygon style="fill:#A8503C;" points="44.027,131.78 28.53,135.339 25.865,159.93 41.144,189.207 59.306,189.207 59.306,161.056 	
		"/>
	<polygon style="fill:#A8503C;" points="467.972,131.78 483.469,135.339 486.134,159.93 470.855,189.207 452.693,189.207 
		452.693,161.056 	"/>
</g>
<g>
	<path style="fill:#EEECED;" d="M44.027,131.78l-18.162,28.15l-11.784-22.579c-2.359-4.543-0.602-10.134,3.931-12.503l9.387-4.902
		c4.543-2.369,10.134-0.612,12.503,3.931L44.027,131.78z"/>
	<polygon style="fill:#EEECED;" points="85.447,211.154 59.626,224.628 41.144,189.207 59.306,161.056 	"/>
	<path style="fill:#EEECED;" d="M467.972,131.78l18.162,28.15l11.784-22.579c2.359-4.543,0.602-10.134-3.931-12.503l-9.387-4.902
		c-4.543-2.369-10.134-0.612-12.503,3.931L467.972,131.78z"/>
	<polygon style="fill:#EEECED;" points="426.552,211.154 452.373,224.628 470.855,189.207 452.693,161.056 	"/>
</g>
<path style="fill:#A8503C;" d="M210.212,210.213c7.523,11.241,11.813,24.229,11.813,38.052c0,42.886-41.284,77.656-92.217,77.656
	s-92.217-34.771-92.217-77.656c0-13.823,4.29-26.811,11.813-38.052l79.918-23.103L210.212,210.213z"/>
<path style="fill:#993E29;" d="M49.405,210.213c4.65-1.514,9.998-0.349,13.59,3.514c2.572,2.776,6.057,4.164,9.542,4.164
	s6.97-1.388,9.542-4.164c2.582-2.776,6.067-4.155,9.552-4.155s6.96,1.378,9.542,4.155c2.582,2.776,6.057,4.164,9.552,4.164
	c3.475,0,6.97-1.388,9.542-4.164s6.057-4.155,9.542-4.155s6.97,1.378,9.542,4.155c2.572,2.776,6.067,4.164,9.542,4.164
	c3.495,0,6.97-1.388,9.552-4.164s6.057-4.155,9.552-4.155c3.475,0,6.97,1.378,9.542,4.155c2.572,2.776,6.057,4.164,9.542,4.164
	s6.97-1.388,9.542-4.164c2.582-2.776,6.067-4.155,9.552-4.155c1.369,0,2.728,0.214,4.038,0.641
	c-15.813-23.637-45.895-39.605-80.403-39.605S65.218,186.576,49.405,210.213z"/>
<path style="fill:#EB98A3;" d="M301.788,210.213c-7.523,11.241-11.813,24.229-11.813,38.052c0,42.886,41.284,77.656,92.217,77.656
	s92.217-34.771,92.217-77.656c0-13.823-4.29-26.811-11.813-38.052l-79.918-23.103L301.788,210.213z"/>
<path style="fill:#993E29;" d="M462.594,210.213c-4.65-1.514-9.998-0.349-13.59,3.514c-2.572,2.776-6.057,4.164-9.542,4.164
	s-6.97-1.388-9.542-4.164c-2.582-2.776-6.067-4.155-9.552-4.155c-3.485,0-6.96,1.378-9.542,4.155
	c-2.582,2.776-6.057,4.164-9.552,4.164c-3.475,0-6.97-1.388-9.542-4.164s-6.057-4.155-9.542-4.155s-6.97,1.378-9.542,4.155
	c-2.572,2.776-6.067,4.164-9.542,4.164c-3.495,0-6.97-1.388-9.552-4.164s-6.057-4.155-9.552-4.155c-3.475,0-6.97,1.378-9.542,4.155
	c-2.572,2.776-6.057,4.164-9.542,4.164s-6.97-1.388-9.542-4.164c-2.582-2.776-6.067-4.155-9.552-4.155
	c-1.369,0-2.728,0.214-4.038,0.641c15.813-23.637,45.895-39.605,80.403-39.605S446.782,186.576,462.594,210.213z"/>
<path style="fill:#994937;" d="M88.577,231.49c-10.296-7.777-22.547-11.888-35.427-11.888c-3.191,0-6.333,0.269-9.414,0.757
	c-3.963,8.662-6.145,18.07-6.145,27.905c0,42.886,41.284,77.656,92.217,77.656c43.678,0,80.258-25.572,89.793-59.903
	C131.755,260.651,95.554,236.759,88.577,231.49z"/>
<path style="fill:#FA7578;" d="M423.42,231.491c-6.976,5.269-43.177,29.16-131.022,34.526c9.535,34.331,46.115,59.903,89.793,59.903
	c50.933,0,92.217-34.771,92.217-77.656c0-9.834-2.182-19.242-6.144-27.902c-3.081-0.489-6.224-0.758-9.416-0.758
	C445.967,219.604,433.717,223.714,423.42,231.491z"/>
<path style="fill:#FEE333;" d="M175.596,249.041c-7.523,11.241-11.813,24.229-11.813,38.052c0,42.886,41.284,77.656,92.217,77.656
	s92.217-34.771,92.217-77.656c0-13.823-4.29-26.811-11.813-38.052l-79.918-23.103L175.596,249.041z"/>
<path style="fill:#993E29;" d="M336.403,249.041c-4.65-1.514-9.998-0.349-13.59,3.514c-2.572,2.776-6.057,4.164-9.542,4.164
	s-6.97-1.388-9.542-4.164c-2.582-2.776-6.067-4.155-9.552-4.155c-3.485,0-6.96,1.378-9.542,4.155
	c-2.582,2.776-6.057,4.164-9.552,4.164c-3.475,0-6.97-1.388-9.542-4.164s-6.057-4.155-9.542-4.155s-6.97,1.378-9.542,4.155
	c-2.572,2.776-6.067,4.164-9.542,4.164c-3.495,0-6.97-1.388-9.552-4.164s-6.057-4.155-9.552-4.155c-3.475,0-6.97,1.378-9.542,4.155
	c-2.572,2.776-6.057,4.164-9.542,4.164s-6.97-1.388-9.542-4.164c-2.582-2.776-6.067-4.155-9.552-4.155
	c-1.369,0-2.728,0.214-4.038,0.641c15.813-23.637,45.895-39.605,80.403-39.605S320.59,225.404,336.403,249.041z"/>
<circle style="fill:#F9545B;" cx="256" cy="198.758" r="20.385"/>
<path style="fill:#E64047;" d="M266,209.143c-11.258,0-20.385-9.126-20.385-20.385c0-3.041,0.684-5.915,1.878-8.507
	c-7.005,3.226-11.878,10.289-11.878,18.507c0,11.258,9.127,20.385,20.385,20.385c8.218,0,15.281-4.873,18.507-11.877
	C271.915,208.459,269.04,209.143,266,209.143z"/>
<path style="fill:#F2D831;" d="M169.432,260.278c-3.652,8.358-5.65,17.391-5.65,26.814c0,42.886,41.284,77.656,92.217,77.656
	s92.217-34.771,92.217-77.656c0-9.423-1.997-18.456-5.65-26.814c-22.965,4.03-51.505,6.814-86.567,6.814
	S192.398,264.309,169.432,260.278z"/>
<circle style="fill:#F9545B;" cx="382.19" cy="159.928" r="20.385"/>
<path style="fill:#E64047;" d="M392.191,170.315c-11.258,0-20.385-9.126-20.385-20.385c0-3.041,0.684-5.915,1.878-8.507
	c-7.005,3.226-11.878,10.289-11.878,18.507c0,11.258,9.127,20.385,20.385,20.385c8.218,0,15.281-4.873,18.507-11.877
	C398.106,169.631,395.232,170.315,392.191,170.315z"/>
<circle style="fill:#F9545B;" cx="129.81" cy="159.928" r="20.385"/>
<path style="fill:#E64047;" d="M139.808,170.315c-11.258,0-20.385-9.126-20.385-20.385c0-3.041,0.684-5.915,1.878-8.507
	c-7.005,3.226-11.878,10.289-11.878,18.507c0,11.258,9.127,20.385,20.385,20.385c8.218,0,15.281-4.873,18.507-11.877
	C145.724,169.631,142.849,170.315,139.808,170.315z"/>
<path style="fill:#E6BB00;" d="M256,364.749c-133.143,0-198.921-34.668-226.28-55.333c-17.112-12.924-20.506-37.273-7.581-54.385
	c12.924-17.112,37.273-20.506,54.385-7.581c12.312,9.3,61.642,39.643,179.476,39.643c117.833,0,167.163-30.343,179.475-39.642
	c17.111-12.923,41.462-9.53,54.385,7.581c12.925,17.111,9.531,41.461-7.581,54.385C454.92,330.082,389.142,364.749,256,364.749z"/>
<path style="fill:#55C2E3;" d="M7.5,324.466L7.5,324.466c0,40.206,32.593,72.799,72.799,72.799h351.402
	c40.206,0,72.799-32.593,72.799-72.799l0,0H7.5z"/>
<path style="fill:#45B6D9;" d="M57.5,324.466L57.5,324.466h-50l0,0c0,40.206,32.593,72.799,72.799,72.799h50
	C90.093,397.265,57.5,364.672,57.5,324.466z"/>
<path d="M512,324.466c0-4.094-3.413-7.5-7.5-7.5h-19.82c0.713-0.52,1.425-1.041,2.119-1.565
	c9.875-7.458,16.253-18.315,17.962-30.571c2.62-18.792-6.97-37.917-23.607-47.03c-1.52-10.688-5.339-20.855-11.383-30.303
	l34.804-66.689c4.254-8.193,1.063-18.334-7.116-22.607l-9.391-4.904c-3.973-2.071-8.513-2.473-12.783-1.13
	c-4.272,1.343-7.765,4.271-9.835,8.241l-29.321,56.184c-8.225-4.511-17.24-7.988-26.797-10.281c0.482-2.05,0.745-4.184,0.745-6.379
	c0-12.984-8.921-23.923-20.955-27.013c1.937-8.916,7.627-12.393,7.92-12.565l-0.108,0.061l-7.156-13.183
	c-0.611,0.332-13.617,7.616-15.944,26.097c-11.305,3.56-19.526,14.139-19.526,26.604c0,2.195,0.263,4.329,0.745,6.379
	c-25.058,6.013-46.405,20.164-59.498,39.734c-0.506,0.756-0.998,1.529-1.482,2.31c-3.551-1.247-7.201-2.32-10.932-3.216
	c0.482-2.05,0.745-4.184,0.745-6.379c0-12.984-8.92-23.923-20.955-27.013c1.937-8.916,7.627-12.393,7.919-12.565l-0.108,0.061
	l-7.156-13.183c-0.61,0.332-13.616,7.616-15.943,26.097c-11.305,3.56-19.526,14.139-19.526,26.604c0,2.195,0.263,4.329,0.745,6.379
	c-3.731,0.895-7.38,1.969-10.932,3.216c-0.485-0.782-0.978-1.557-1.485-2.314c-13.091-19.567-34.438-33.717-59.495-39.73
	c0.482-2.05,0.745-4.184,0.745-6.379c0-12.465-8.222-23.044-19.526-26.604c-2.327-18.48-15.333-25.765-15.944-26.097l-7.156,13.183
	l-0.108-0.061c0.293,0.172,5.983,3.649,7.92,12.565c-12.034,3.089-20.955,14.028-20.955,27.013c0,2.195,0.263,4.329,0.745,6.379
	c-9.557,2.293-18.572,5.77-26.797,10.281l-29.319-56.18c-4.274-8.197-14.422-11.389-22.625-7.112l-9.388,4.903
	c-8.177,4.272-11.369,14.413-7.107,22.62l34.796,66.675c-6.043,9.446-9.862,19.613-11.382,30.301
	c-5.672,3.106-10.678,7.397-14.692,12.713c-7.459,9.874-10.625,22.063-8.917,34.318c1.708,12.256,8.088,23.113,17.962,30.572
	c0.695,0.525,1.408,1.045,2.121,1.566H7.5c-4.142,0-7.5,3.358-7.5,7.5c0,44.277,36.022,80.299,80.299,80.299h351.402
	C475.978,404.766,512,368.743,512,324.466z M267.139,279.498c-26.876,0.489-53.842-0.607-80.52-3.98
	c-1.031-0.13-13.75-1.564-13.75-1.967c0.008-0.034,0.077-0.314,0.103-0.42c1.399-5.73,3.665-11.234,6.629-16.331
	c0.172-0.296,0.326-0.608,0.543-0.875c1.339,0.121,2.626,0.741,3.542,1.727c8.003,8.613,22.074,8.651,30.086,0
	c2.128-2.298,5.983-2.266,8.101,0.01c8.007,8.606,22.104,8.609,30.086-0.01c2.116-2.285,5.972-2.279,8.082,0
	c8.001,8.642,22.081,8.617,30.087,0.01c2.155-2.316,5.943-2.33,8.101-0.01c8.007,8.61,22.072,8.648,30.078,0.009
	c0.884-0.954,2.223-1.606,3.532-1.73c0.014-0.001,0.029,0,0.043-0.002c0.174,0.288,1.468,2.544,1.912,3.392
	c2.28,4.355,4.073,9.032,5.236,13.81c0.026,0.105,0.095,0.387,0.103,0.423c-21.815,3.491-45.821,5.48-71.594,5.935
	C267.404,279.493,267.273,279.496,267.139,279.498z M217.521,224.601c0.075-0.032,0.145-0.072,0.219-0.106
	c5.95-2.493,12.277-4.424,18.891-5.704c4.409,4.265,10.213,7.094,16.656,7.719c8.064,0.782,16.258-2.085,22.083-7.719
	c6.585,1.275,12.886,3.195,18.814,5.673c0.099,0.047,0.193,0.1,0.294,0.143c9.362,3.968,17.657,9.275,24.573,15.662
	c0.27,0.249,3.183,3.309,3.295,3.247c-1.863,1.039-3.584,2.378-5.033,3.943c-2.156,2.327-5.94,2.312-8.09-0.009
	c-6.912-7.462-18.603-8.631-26.896-2.779c-2.357,1.663-4.063,4.55-7.242,4.55c-0.899,0-2.62-0.229-4.04-1.761
	c-7.999-8.631-22.087-8.635-30.087-0.001c-1.421,1.533-3.142,1.762-4.041,1.762c-1.555,0-2.996-0.629-4.058-1.771
	c-8.019-8.618-22.091-8.622-30.088,0.009c-1.053,1.136-2.488,1.762-4.041,1.762s-2.988-0.625-4.05-1.772
	c-1.39-1.492-3.025-2.778-4.792-3.793c-0.069-0.04-0.222-0.136-0.232-0.141c0.241-0.251,2.443-2.458,3.332-3.279
	C199.896,233.86,208.177,228.563,217.521,224.601z M331.178,224.408c3.332-1.068,6.37-2.977,8.785-5.583
	c2.149-2.32,5.958-2.293,8.101,0.01c8.013,8.611,22.089,8.622,30.087-0.01c2.118-2.286,5.97-2.278,8.082,0
	c8.008,8.638,22.071,8.627,30.087,0.01c2.155-2.317,5.945-2.328,8.101-0.01c8.009,8.608,22.069,8.652,30.078,0.009
	c0.901-0.97,2.217-1.606,3.532-1.73c0.019-0.002,0.039-0.001,0.058-0.002c2.967,4.924,5.195,10.068,6.669,15.39
	c-12.083-1.55-24.068,1.621-33.803,8.975c-0.007,0.006-0.016,0.012-0.023,0.017c-2.698,2.152-5.72,3.962-8.687,5.712
	c-0.034,0.02-0.069,0.04-0.103,0.06c-11.839,6.904-33.293,16.619-68.224,23.637c-0.025-0.11-0.057-0.219-0.082-0.329
	c-2.599-11.354-8.058-22.158-15.27-31.263c-4.059-5.124-8.712-9.785-13.78-13.911C325.528,225.39,329.816,224.844,331.178,224.408z
	 M468.658,146.677l8.808,13.652l-7.296,13.981l-8.808-13.653L468.658,146.677z M478.749,127.345c0.447-0.857,1.527-1.195,2.38-0.75
	l9.385,4.901c0.865,0.452,1.2,1.528,0.755,2.385l-5.821,11.152l-8.808-13.652L478.749,127.345z M453.38,175.954l8.808,13.652
	l-2.576,4.937c-3.326-3.502-6.958-6.752-10.852-9.735L453.38,175.954z M382.192,147.046c7.105,0,12.885,5.78,12.885,12.885
	c0,6.899-5.932,12.877-12.902,12.884c-6.925-0.007-12.867-5.955-12.867-12.884C369.307,152.826,375.087,147.046,382.192,147.046z
	 M362.822,179.962c4.41,4.266,10.215,7.095,16.659,7.72c0.049,0.005,0.098,0.006,0.147,0.011c1.707,0.17,3.434,0.158,5.141-0.001
	c0.044-0.004,0.088-0.005,0.132-0.01c6.444-0.625,12.25-3.454,16.66-7.72c11.857,2.296,23.302,6.778,33.379,13.451
	c5.062,3.345,9.607,7.119,13.594,11.275c-0.079,0.043-0.153,0.095-0.231,0.14c-1.751,1.007-3.408,2.303-4.8,3.801
	c-2.157,2.322-5.938,2.313-8.091-0.01c-7.984-8.617-22.083-8.597-30.077,0c-2.162,2.325-5.943,2.338-8.1,0.011
	c-7.977-8.604-22.126-8.593-30.088-0.001c-2.131,2.299-5.983,2.266-8.1-0.01c-8.009-8.611-22.089-8.623-30.087,0.01
	c-2.157,2.328-5.936,2.306-8.091-0.01c-1.443-1.551-3.151-2.88-4.996-3.917c-0.016-0.009-0.03-0.019-0.045-0.027
	C327.659,192.299,344.128,183.581,362.822,179.962z M256,185.874c7.105,0,12.885,5.78,12.885,12.885
	c0,6.909-5.847,12.883-12.855,12.883c-0.01,0-0.02,0.002-0.029,0.002c-0.011,0-0.021-0.002-0.032-0.002
	c-6.96-0.002-12.853-5.945-12.853-12.883C243.115,191.654,248.896,185.874,256,185.874z M196.171,204.675
	c-0.016,0.009-0.031,0.02-0.046,0.028c-1.853,1.042-3.557,2.369-5.004,3.926c-2.144,2.307-5.941,2.311-8.081,0.001
	c-7.985-8.617-22.093-8.608-30.087-0.011c-2.149,2.311-5.96,2.321-8.1,0.011c-7.988-8.619-22.103-8.618-30.087,0
	c-2.154,2.323-5.954,2.297-8.1-0.011c-7.99-8.593-22.102-8.576-30.087,0.01c-2.158,2.321-5.936,2.312-8.09-0.008
	c-0.011-0.013-0.024-0.023-0.036-0.036c-1.461-1.521-3.138-2.884-4.991-3.901c3.988-4.157,8.533-7.932,13.596-11.279
	c0.143-0.094,0.275-0.197,0.409-0.298c9.611-6.27,20.816-10.792,32.973-13.145c4.41,4.266,10.215,7.095,16.659,7.72
	c0.049,0.005,0.098,0.006,0.147,0.011c8.013,0.801,16.164-2.15,21.934-7.731C167.872,183.581,184.342,192.3,196.171,204.675z
	 M34.534,160.33l8.808-13.652l7.296,13.98l-8.809,13.653L34.534,160.33z M129.809,147.046c7.105,0,12.885,5.78,12.885,12.885
	c0,6.947-5.876,12.891-12.902,12.884c-6.925-0.007-12.868-5.958-12.868-12.884C116.924,152.826,122.704,147.046,129.809,147.046z
	 M52.389,194.543l-2.576-4.937l8.808-13.652l4.62,8.854C59.347,187.79,55.715,191.041,52.389,194.543z M21.484,131.497l9.383-4.899
	c0.261-0.136,0.54-0.2,0.815-0.2c0.638,0,1.256,0.346,1.572,0.952l2.105,4.032l-8.808,13.652l-5.813-11.139
	C20.285,133.025,20.621,131.948,21.484,131.497z M22.094,282.758c-1.155-8.288,0.986-16.53,6.03-23.207
	c9.33-12.353,26.888-15.996,40.384-8.404c0.011,0.006,0.023,0.013,0.034,0.02c1.835,1.037,3.695,2.478,5.491,3.75
	c4.931,3.49,12.764,8.276,24.302,13.375c2.93,1.295,6.607,0.419,8.716-1.969c2.676-2.943,2.595-7.5-0.248-10.343
	c-1.089-1.089-3.941-2.1-3.994-2.124c-7.607-3.451-15.035-7.417-21.765-12.391c-9.735-7.354-21.719-10.525-33.801-8.976
	c1.475-5.321,3.703-10.465,6.668-15.388c0.022,0.002,0.045,0,0.068,0.003c1.254,0.136,2.651,0.792,3.515,1.721
	c8.008,8.61,22.074,8.646,30.077,0.01c2.158-2.329,5.952-2.32,8.111,0c8.013,8.612,22.091,8.619,30.086-0.01
	c2.148-2.316,5.941-2.31,8.082,0.001c8,8.635,22.083,8.614,30.087,0.01c2.155-2.316,5.95-2.331,8.101-0.01
	c3.831,4.135,9.403,6.566,15.043,6.566c0.023,0,0.047-0.003,0.07-0.003c0.021,0,0.042,0.003,0.063,0.003
	c-14.132,11.506-24.958,27.289-29.049,45.174c-0.024,0.106-0.055,0.211-0.079,0.317c-0.355-0.071-0.711-0.143-1.064-0.215
	c-7.491-1.532-14.934-3.304-22.295-5.371c-3.888-1.097-8.159,1.305-9.254,5.189c-1.123,3.987,1.2,8.129,5.187,9.252
	c1.876,0.525,3.758,1.029,5.643,1.52c38.932,10.156,79.567,13.335,119.699,13.335c31.149,0,62.452-2.005,93.138-7.523
	c51.089-9.186,77.958-24.499,88.717-32.077c10.082-7.101,21.462-10.437,33.371-5.346c0.04,0.017,0.083,0.027,0.124,0.043
	c12.851,5.198,20.441,19.543,18.556,33.068c-1.155,8.288-5.469,15.629-12.146,20.673c-6.231,4.706-13.333,9.254-21.134,13.534
	H55.375c-7.8-4.28-14.903-8.828-21.135-13.535C27.563,298.388,23.249,291.046,22.094,282.758z M431.701,389.766H80.299
	c-33.47,0-61.14-25.313-64.872-57.799h481.144C492.84,364.453,465.171,389.766,431.701,389.766z"/>
<g>
</g>
<g>
</g>
<g>
</g>
<g>
</g>
<g>
</g>
<g>
</g>
<g>
</g>
<g>
</g>
<g>
</g>
<g>
</g>
<g>
</g>
<g>
</g>
<g>
</g>
<g>
</g>
<g>
</g>
</svg>
