<?xml version="1.0" encoding="iso-8859-1"?>
<!-- Generator: Adobe Illustrator 19.0.0, SVG Export Plug-In . SVG Version: 6.00 Build 0)  -->
<svg version="1.1" id="Capa_1" xmlns="http://www.w3.org/2000/svg" xmlns:xlink="http://www.w3.org/1999/xlink" x="0px" y="0px"
	 viewBox="0 0 512.007 512.007" style="enable-background:new 0 0 512.007 512.007;" xml:space="preserve">
<g>
	<circle style="fill:#F98C96;" cx="255.995" cy="273.071" r="68.271"/>
	<path style="fill:#F98C96;" d="M255.995,349.876c-42.422,0-76.805-34.383-76.805-76.805s34.383-76.805,76.805-76.805
		s76.805,34.383,76.805,76.805S298.417,349.876,255.995,349.876z M255.995,213.334c-32.992,0-59.737,26.745-59.737,59.737
		s26.745,59.737,59.737,59.737s59.737-26.745,59.737-59.737S288.987,213.334,255.995,213.334z"/>
</g>
<g>
	<circle style="fill:#D3843D;" cx="341.334" cy="307.207" r="68.271"/>
	<path style="fill:#D3843D;" d="M341.334,384.012c-42.422,0-76.805-34.383-76.805-76.805s34.383-76.805,76.805-76.805
		s76.805,34.383,76.805,76.805S383.756,384.012,341.334,384.012z M341.334,247.47c-32.992,0-59.737,26.745-59.737,59.737
		s26.745,59.737,59.737,59.737s59.737-26.745,59.737-59.737S374.326,247.47,341.334,247.47z"/>
</g>
<g>
	<circle style="fill:#DD3E46;" cx="255.995" cy="162.131" r="34.136"/>
	<path style="fill:#DD3E46;" d="M255.995,204.8c-23.562,0-42.67-19.107-42.67-42.67s19.107-42.67,42.67-42.67
		s42.67,19.107,42.67,42.67S279.565,204.8,255.995,204.8z M255.995,136.529c-14.141,0-25.602,11.461-25.602,25.602
		s11.461,25.602,25.602,25.602s25.602-11.461,25.602-25.602S270.135,136.529,255.995,136.529z"/>
</g>
<g>
	<path style="fill:#8EC13F;" d="M255.995,136.529c-4.711,0-8.534-3.823-8.534-8.534V25.588c0-4.711,3.823-8.534,8.534-8.534
		c4.711,0,8.534,3.823,8.534,8.534v102.407C264.528,132.706,260.705,136.529,255.995,136.529z"/>
	<polygon style="fill:#8EC13F;" points="255.995,25.588 324.266,25.588 255.995,76.792 	"/>
	<path style="fill:#8EC13F;" d="M255.995,85.325c-1.34,0.026-2.663-0.299-3.84-0.939c-2.867-1.442-4.685-4.378-4.694-7.595V25.588
		c0-4.711,3.823-8.534,8.534-8.534h68.271c4.711,0,8.534,3.823,8.534,8.534c0,2.688-1.263,5.214-3.414,6.827l-68.271,51.203
		C259.639,84.728,257.846,85.325,255.995,85.325z M264.528,34.122v25.602l34.136-25.602
		C298.664,34.122,264.528,34.122,264.528,34.122z"/>
</g>
<g>
	<circle style="fill:#87CEE9;" cx="170.656" cy="307.207" r="68.271"/>
	<path style="fill:#87CEE9;" d="M170.656,384.012c-42.422,0-76.805-34.383-76.805-76.805s34.383-76.805,76.805-76.805
		s76.805,34.383,76.805,76.805S213.078,384.012,170.656,384.012z M170.656,247.47c-32.992,0-59.737,26.745-59.737,59.737
		s26.745,59.737,59.737,59.737s59.737-26.745,59.737-59.737S203.648,247.47,170.656,247.47z"/>
</g>
<path style="fill:#FCF05A;" d="M440.754,428.303l-172.129,38.232c-8.423,1.929-17.179,1.929-25.602,0L71.236,428.303
	c-26.686-5.923-45.665-29.587-45.656-56.921l0,0c0.034-32.241,26.199-58.338,58.44-58.304c4.224,0.009,8.44,0.469,12.562,1.382
	l146.783,32.599c8.423,1.929,17.179,1.929,25.602,0l146.783-32.599c31.516-6.784,62.562,13.262,69.355,44.777
	c0.862,3.994,1.297,8.065,1.306,12.144l0,0C486.418,398.716,467.439,422.38,440.754,428.303z"/>
<g>
	<polygon style="fill:#FDBD40;" points="469.342,486.419 42.647,486.419 8.511,418.148 503.478,418.148 	"/>
	<path style="fill:#FDBD40;" d="M469.342,494.953H42.647c-3.217-0.009-6.153-1.826-7.595-4.694L0.916,421.988
		c-2.125-4.207-0.427-9.345,3.781-11.461c1.186-0.597,2.492-0.905,3.815-0.913h494.966c4.711,0.017,8.525,3.849,8.508,8.56
		c0,1.323-0.316,2.628-0.913,3.815l-34.136,68.271C475.495,493.126,472.559,494.944,469.342,494.953z M47.938,477.885h416.113
		l25.602-51.203H22.336L47.938,477.885z"/>
</g>
<path d="M510.732,413.625c-1.562-2.5-4.301-4.019-7.254-4.011h-20.652c20.251-28.802,14.601-68.382-12.886-90.374
	c-14.533-11.726-33.359-16.744-51.801-13.825c-1.05-42.405-36.278-75.935-78.683-74.885c-6.085,0.154-12.127,1.024-18.007,2.603
	c-9.959-16.633-25.892-28.845-44.547-34.136c20.413-11.777,27.419-37.865,15.643-58.278c-6.033-10.454-16.214-17.87-28.017-20.405
	V81.058l64.858-48.643c3.772-2.825,4.531-8.175,1.707-11.947c-1.613-2.151-4.139-3.414-6.827-3.414h-68.271
	c-4.711,0-8.534,3.823-8.534,8.534v94.726c-23.059,4.856-37.822,27.488-32.966,50.546c2.518,11.965,10.044,22.273,20.678,28.307
	c-18.681,5.231-34.631,17.46-44.547,34.136c-40.954-11.043-83.112,13.202-94.155,54.156c-1.579,5.863-2.458,11.888-2.62,17.955
	c-36.38-5.607-70.422,19.338-76.029,55.718c-0.521,3.388-0.785,6.819-0.777,10.249c0.06,13.68,4.293,27.018,12.118,38.232H8.511
	c-4.711,0.017-8.517,3.849-8.508,8.56c0,1.323,0.316,2.628,0.913,3.815l34.136,68.271c1.442,2.867,4.378,4.685,7.595,4.694h426.695
	c3.217-0.009,6.153-1.826,7.595-4.694l34.136-68.271C512.43,419.334,512.302,416.159,510.732,413.625z M401.071,307.207
	c0.043,0.572,0.043,1.135,0,1.707l-112.989,25.09c-14.951-29.408-3.226-65.37,26.182-80.321
	c29.408-14.951,65.37-3.226,80.321,26.182C398.895,288.338,401.114,297.709,401.071,307.207z M264.528,59.724V34.122h34.136
	L264.528,59.724z M255.995,136.529c14.141,0,25.602,11.461,25.602,25.602s-11.461,25.602-25.602,25.602
	c-14.141,0-25.602-11.461-25.602-25.602S241.854,136.529,255.995,136.529z M255.995,213.334
	c19.747,0.017,38.215,9.788,49.326,26.114c-35.271,18.894-50.128,61.709-34.136,98.396l-4.096,0.853
	c-7.134,1.621-14.542,1.621-21.676,0l-4.096-0.853c15.993-36.687,1.135-79.502-34.136-98.396
	C218.13,223.208,236.409,213.428,255.995,213.334z M170.656,247.47c32.992,0.077,59.678,26.882,59.601,59.874
	c-0.026,9.259-2.193,18.382-6.349,26.66l-112.989-25.09c0-0.597,0-1.109,0-1.707C110.918,274.215,137.663,247.47,170.656,247.47z
	 M34.113,371.382c0.009-27.522,22.333-49.829,49.855-49.821c3.61,0,7.211,0.393,10.736,1.178l131.081,29.186h0.683l15.02,3.328
	c9.567,2.048,19.449,2.048,29.015,0l146.783-32.685c26.865-5.76,53.32,11.342,59.08,38.215c3.704,17.264-2.023,35.202-15.045,47.124
	c-0.265,0.538-0.444,1.109-0.512,1.707H52.12C40.761,400.158,34.173,386.163,34.113,371.382z M464.051,477.885H47.938
	l-25.602-51.203h467.316L464.051,477.885z"/>
<g>
</g>
<g>
</g>
<g>
</g>
<g>
</g>
<g>
</g>
<g>
</g>
<g>
</g>
<g>
</g>
<g>
</g>
<g>
</g>
<g>
</g>
<g>
</g>
<g>
</g>
<g>
</g>
<g>
</g>
</svg>
