<?xml version="1.0" encoding="iso-8859-1"?>
<!-- Generator: Adobe Illustrator 19.0.0, SVG Export Plug-In . SVG Version: 6.00 Build 0)  -->
<svg version="1.1" id="Capa_1" xmlns="http://www.w3.org/2000/svg" xmlns:xlink="http://www.w3.org/1999/xlink" x="0px" y="0px"
	 viewBox="0 0 479.916 479.916" style="enable-background:new 0 0 479.916 479.916;" xml:space="preserve">
<path style="fill:#D1E3EE;" d="M401.051,471.392h-168c21.165-100.531,24.291-204.023,9.232-305.648l-9.232-62.352h168l-9.24,62.344
	c-15.056,101.625-11.928,205.118,9.24,305.648V471.392z"/>
<path style="fill:#A9BFD1;" d="M286.723,196.552l-11.272-11.328l136-135.504c3.123-3.118,8.181-3.118,11.304,0l56,56l-11.304,11.328
	l-50.4-50.352L286.723,196.552z"/>
<circle style="fill:#C9DA53;" cx="225.05" cy="55.392" r="48"/>
<path style="fill:#FFD884;" d="M389.674,182.936l-145.16,0.384c10.877,85.156,9.044,171.455-5.44,256.072h156
	C380.568,354.647,378.748,268.216,389.674,182.936z"/>
<circle style="fill:#FBC142;" cx="169.05" cy="367.392" r="104"/>
<path style="fill:#9A615B;" d="M41.226,448.464l-9.304-46.224c-4.026-20.155-13.934-38.664-28.472-53.192l11.28-11.32
	c16.782,16.755,28.224,38.107,32.88,61.36l9.304,46.232L41.226,448.464z"/>
<path style="fill:#4FB86A;" d="M73.05,207.392c0,53.019,42.981,96,96,96C169.05,250.373,126.07,207.392,73.05,207.392z"/>
<g>
	<path style="fill:#EC7422;" d="M169.05,359.392c-17.673,0-32-14.327-32-32h16c0,8.837,7.163,16,16,16s16-7.163,16-16
		s-7.163-16-16-16v-16c17.673,0,32,14.327,32,32S186.724,359.392,169.05,359.392z"/>
	<path style="fill:#EC7422;" d="M113.075,415.392h16v16h-16V415.392z"/>
	<path style="fill:#EC7422;" d="M145.074,431.392h16v16h-16V431.392z"/>
	<path style="fill:#EC7422;" d="M173.494,432.231l16-8l7.155,14.311l-16,8L173.494,432.231z"/>
	<path style="fill:#EC7422;" d="M209.074,415.392h16v16h-16V415.392z"/>
	<path style="fill:#EC7422;" d="M153.074,399.392h16v16h-16V399.392z"/>
</g>
<circle style="fill:#DD156D;" cx="41.05" cy="439.392" r="32"/>
<path d="M411.451,50.232l-45.688,45.656h-101.6c22.06-21.632,22.407-57.053,0.775-79.113S207.885-5.632,185.824,16
	s-22.407,57.053-0.775,79.113c10.535,10.744,24.954,16.79,40.001,16.775c0.368,0,0.72-0.048,1.088-0.056l8.232,55.568
	c5.686,38.742,8.72,77.828,9.08,116.984c-20.438-18.347-46.935-28.496-74.4-28.496c-1.264,0-2.504,0.104-3.768,0.144
	c-17.859-34.459-53.42-56.105-92.232-56.144c-4.418,0-8,3.582-8,8c0.004,28.155,11.461,55.097,31.736,74.632
	c-36.365,30.522-49.341,80.766-32.304,125.08c-4.951-3.606-10.672-6.013-16.712-7.032l-0.2-0.968
	c-4.632-23.255-16.061-44.613-32.84-61.368L3.45,349.544c14.131,14.146,23.876,32.072,28.064,51.624
	C10.1,406.466-2.966,428.12,2.331,449.535c5.298,21.415,26.952,34.481,48.367,29.183c17.848-4.415,30.377-20.444,30.352-38.83
	c0-1.168-0.248-2.264-0.344-3.408c34.553,44.882,97.291,56.677,145.784,27.408c-0.424,2.12-0.8,4.248-1.248,6.4
	c-0.884,4.329,1.909,8.555,6.238,9.438c0.517,0.105,1.042,0.16,1.57,0.162h168c4.418-0.002,7.998-3.586,7.996-8.004
	c0-0.552-0.058-1.103-0.172-1.644c-21.024-99.601-24.121-202.152-9.144-302.84l9.232-62.344c0.645-4.371-2.375-8.437-6.746-9.082
	c-0.386-0.057-0.776-0.086-1.166-0.086h-12.664L417.051,67.2l50.4,50.344l11.312-11.312l-56-56
	C419.639,47.109,414.574,47.109,411.451,50.232L411.451,50.232z M185.05,55.888c0-22.091,17.909-40,40-40s40,17.909,40,40
	s-17.909,40-40,40C202.97,95.862,185.077,77.968,185.05,55.888z M41.05,463.888c-13.255,0-24-10.745-24-24s10.745-24,24-24
	s24,10.745,24,24S54.305,463.888,41.05,463.888z M251.602,175.888c-0.488-3.608-0.848-7.2-1.384-10.832l-7.872-53.168h107.416
	l-64,64H251.602z M81.474,216.288c41.935,4.081,75.119,37.265,79.2,79.2C118.74,291.407,85.555,258.223,81.474,216.288
	L81.474,216.288z M73.05,367.888c-0.065-29.242,13.279-56.9,36.208-75.048c17.473,12.396,38.368,19.052,59.792,19.048
	c8.837,0,16,7.163,16,16s-7.163,16-16,16s-16-7.163-16-16h-16c-0.053,17.673,14.23,32.043,31.903,32.096s32.043-14.23,32.096-31.903
	c0.045-14.763-10.016-27.641-24.352-31.169c-0.537-8.451-2.108-16.804-4.68-24.872c52.962,1.67,94.542,45.958,92.872,98.92
	c-1.67,52.962-45.958,94.542-98.92,92.872C114.166,462.199,73.024,419.718,73.05,367.888L73.05,367.888z M242.882,463.888
	c0.949-4.8,1.867-9.627,2.752-14.48c0.552-0.512,1.136-0.992,1.672-1.52h105.744v-16h-92.192
	c27.412-39.034,26.904-91.196-1.264-129.688c0.339-36.859-1.647-73.703-5.944-110.312h126.88c-9.392,79.851-7.682,160.618,5.08,240
	h-16.56v16h19.368c0.96,5.336,1.768,10.68,2.824,16H242.882z M391.803,111.888l-7.88,53.168c-0.528,3.608-0.88,7.2-1.368,10.832
	h-74.168l64-64H391.803z"/>
<path d="M113.075,415.888h16v16h-16V415.888z"/>
<path d="M145.074,431.888h16v16h-16V431.888z"/>
<path d="M173.495,432.762l16-8l7.155,14.311l-16,8L173.495,432.762z"/>
<path d="M209.074,415.888h16v16h-16V415.888z"/>
<path d="M153.074,399.888h16v16h-16V399.888z"/>
<g>
</g>
<g>
</g>
<g>
</g>
<g>
</g>
<g>
</g>
<g>
</g>
<g>
</g>
<g>
</g>
<g>
</g>
<g>
</g>
<g>
</g>
<g>
</g>
<g>
</g>
<g>
</g>
<g>
</g>
</svg>
