<?xml version="1.0" encoding="iso-8859-1"?>
<!-- Generator: Adobe Illustrator 19.0.0, SVG Export Plug-In . SVG Version: 6.00 Build 0)  -->
<svg version="1.1" id="Capa_1" xmlns="http://www.w3.org/2000/svg" xmlns:xlink="http://www.w3.org/1999/xlink" x="0px" y="0px"
	 viewBox="0 0 511.999 511.999" style="enable-background:new 0 0 511.999 511.999;" xml:space="preserve">
<path style="fill:#D1E9FA;" d="M360.758,425.206H151.242c-8.079,0-14.628-6.549-14.628-14.628v-13.524h238.772v13.524
	C375.386,418.657,368.837,425.206,360.758,425.206z"/>
<path style="fill:#BADDF7;" d="M265.103,397.054H136.614v13.524c0,8.079,6.549,14.628,14.628,14.628h121.546
	C260.59,417.346,257.026,402.249,265.103,397.054z"/>
<circle style="fill:#EFA8B8;" cx="361" cy="216.27" r="71.06"/>
<path style="fill:#B18E82;" d="M361,141.48c-30.515,0-56.75,18.279-68.379,44.482c-2.636,5.94-0.788,12.912,4.536,16.638l0,0
	c7.282,5.098,16.8,5.71,24.675,1.586l0,0c8.081-4.231,17.803-3.842,25.521,1.021l0,0c8.339,5.255,18.955,5.255,27.294,0l0,0
	c7.717-4.863,17.44-5.252,25.521-1.021l0,0c7.875,4.124,17.393,3.512,24.675-1.586l0,0c5.324-3.727,7.172-10.698,4.536-16.638
	C417.75,159.759,391.515,141.48,361,141.48z"/>
<circle style="fill:#F8E8B9;" cx="151" cy="216.27" r="71.06"/>
<path style="fill:#B18E82;" d="M151,141.48c-30.515,0-56.75,18.279-68.379,44.482c-2.636,5.94-0.788,12.912,4.536,16.638l0,0
	c7.283,5.098,16.8,5.71,24.675,1.586l0,0c8.081-4.231,17.803-3.842,25.521,1.021l0,0c8.339,5.255,18.955,5.255,27.294,0l0,0
	c7.717-4.863,17.44-5.252,25.521-1.021l0,0c7.875,4.124,17.393,3.512,24.675-1.586l0,0c5.324-3.727,7.172-10.698,4.536-16.638
	C207.75,159.759,181.515,141.48,151,141.48z"/>
<g>
	<path style="fill:#A38277;" d="M137.353,205.207c8.27,5.211,18.777,5.247,27.084,0.122c-24.225-4.511-34.637-44.588-26.352-62.726
		c-24.868,4.331-45.514,20.939-55.465,43.358c-2.636,5.94-0.788,12.912,4.536,16.638c7.283,5.098,16.8,5.71,24.675,1.586l0,0
		C119.913,199.955,129.635,200.344,137.353,205.207L137.353,205.207z"/>
	<path style="fill:#A38277;" d="M347.353,205.207c8.27,5.211,18.777,5.247,27.084,0.122c-24.225-4.511-34.638-44.588-26.352-62.726
		c-24.868,4.331-45.514,20.939-55.465,43.358c-2.636,5.94-0.788,12.912,4.536,16.638c7.283,5.098,16.8,5.71,24.675,1.586l0,0
		C329.913,199.955,339.635,200.344,347.353,205.207L347.353,205.207z"/>
</g>
<circle style="fill:#B18E82;" cx="256" cy="216.27" r="71.06"/>
<path style="fill:#F4E08F;" d="M256,340.496c-24.722,0-57.299-3.055-87.143-8.173c-38.966-6.682-68.283-15.885-87.136-27.356
	c-17.306-10.528-22.8-33.092-12.273-50.398c10.529-17.306,33.093-22.8,50.398-12.271C138.343,253.55,203.199,267.14,256,267.14
	c43.174,0,113.535-11.081,136.155-24.842c17.302-10.529,39.868-5.035,50.398,12.271c10.528,17.306,5.033,39.87-12.273,50.398
	c-18.853,11.47-48.17,20.674-87.136,27.356C313.299,337.441,280.721,340.496,256,340.496z"/>
<g>
	<path style="fill:#EBCE72;" d="M196.893,262.582c-34.454-4.943-65.223-13.091-77.047-20.284
		c-17.304-10.529-39.868-5.035-50.398,12.271c-10.528,17.306-5.033,39.87,12.273,50.398c18.853,11.47,48.17,20.673,87.136,27.356
		c29.844,5.118,62.421,8.173,87.143,8.173c1.386,0,2.804-0.013,4.238-0.032C208.429,326.967,193.23,283.455,196.893,262.582z"/>
	<path style="fill:#EBCE72;" d="M256,306.081c-57.623,0-99.697-9.196-111.221-12.015c-4.023-0.984-6.487-5.043-5.503-9.067
		s5.043-6.487,9.067-5.503c11.11,2.718,51.711,11.585,107.656,11.585s96.546-8.867,107.656-11.585
		c4.022-0.985,8.083,1.479,9.067,5.503c0.984,4.023-1.479,8.083-5.503,9.067C355.697,296.885,313.623,306.081,256,306.081z"/>
</g>
<path style="fill:#D1E9FA;" d="M413.793,391.928c24.31-8.615,50.008-21.936,69.387-35.59c13.368-9.418,21.319-24.74,21.319-41.092
	l0,0c0-10.346-8.387-18.732-18.732-18.732h-20.461c-12.192,0-24.34,1.755-35.96,5.443C370.546,320.618,293.175,325.3,256,325.3
	s-114.546-4.682-173.346-23.344c-11.621-3.688-23.768-5.443-35.96-5.443H26.232c-10.346,0-18.732,8.387-18.732,18.732l0,0
	c0,16.352,7.952,31.674,21.319,41.092c19.379,13.654,45.078,26.975,69.387,35.59c9.541,3.381,19.58,5.126,29.702,5.126H384.09
	C394.213,397.054,404.252,395.309,413.793,391.928z"/>
<path style="fill:#799EE5;" d="M59.331,374.799c12.578,6.603,25.92,12.538,38.876,17.129c9.541,3.381,19.58,5.126,29.702,5.126
	h256.182c10.123,0,20.161-1.745,29.702-5.126c12.956-4.591,26.298-10.526,38.876-17.129H59.331z"/>
<path style="fill:#9D7D75;" d="M256,141.48c-30.515,0-56.75,18.279-68.379,44.482c-2.636,5.94-0.788,12.912,4.536,16.638l0,0
	c7.282,5.098,16.8,5.71,24.675,1.586l0,0c8.081-4.231,17.803-3.842,25.521,1.021l0,0c8.339,5.255,18.955,5.255,27.294,0l0,0
	c7.717-4.863,17.44-5.252,25.521-1.021l0,0c7.875,4.124,17.393,3.512,24.675-1.586l0,0c5.324-3.727,7.172-10.698,4.536-16.638
	C312.75,159.759,286.515,141.48,256,141.48z"/>
<path style="fill:#8A6C68;" d="M242.353,205.207c8.27,5.211,18.777,5.247,27.084,0.122c-24.225-4.511-34.638-44.588-26.352-62.726
	c-24.868,4.331-45.514,20.939-55.465,43.358c-2.636,5.94-0.788,12.911,4.536,16.638c7.283,5.098,16.8,5.71,24.675,1.586l0,0
	C224.913,199.955,234.635,200.344,242.353,205.207L242.353,205.207z"/>
<circle style="fill:#E87684;" cx="256.73" cy="138.76" r="19.585"/>
<path style="fill:#B18E82;" d="M285.49,300.522L285.49,300.522c-10.394,0-18.82-8.426-18.82-18.819v-42.302h37.639v42.302
	C304.31,292.097,295.884,300.522,285.49,300.522z"/>
<path style="fill:#F8E8B9;" d="M115.68,278.597L115.68,278.597c-10.394,0-18.82-8.426-18.82-18.819v-33.565h37.639v33.565
	C134.499,270.171,126.074,278.597,115.68,278.597z"/>
<path style="fill:#BADDF7;" d="M208.096,323.43c-38.381-2.752-86.074-8.979-125.443-21.474c-11.621-3.688-23.768-5.443-35.96-5.443
	h-20.46c-10.346,0-18.733,8.387-18.733,18.732l0,0c0,16.352,7.951,31.674,21.319,41.092c19.38,13.654,45.078,26.975,69.387,35.59
	c9.541,3.381,19.58,5.126,29.702,5.126h137.194C210.24,383.101,196.479,338.103,208.096,323.43z"/>
<path style="fill:#6E8FD1;" d="M98.207,391.928c9.541,3.381,19.58,5.126,29.702,5.126h137.194
	c-18.435-4.689-32.223-12.884-41.973-22.255H59.331C71.909,381.401,85.251,387.336,98.207,391.928z"/>
<path d="M485.768,289.013h-20.461c-4.338,0-8.628,0.23-12.869,0.646c4.888-12.488,3.903-26.853-3.478-38.988
	c-3.212-5.28-7.408-9.729-12.316-13.18c1.929-6.88,2.916-13.99,2.916-21.217c0-6.371-0.784-12.728-2.324-18.934
	c1.324-4.641,1.077-9.741-1-14.421C423.04,153.19,393.508,133.98,361,133.98c-19.352,0-37.715,6.68-52.447,18.917
	c-7.291-6.05-15.635-10.834-24.735-14.089c0-0.017,0.001-0.033,0.001-0.05c0-7.796-3.315-14.828-8.604-19.774
	c8.983-11.938,20.447-21.125,31.624-25.129c3.899-1.397,5.928-5.69,4.531-9.59c-1.397-3.9-5.692-5.927-9.59-4.531
	c-19.453,6.968-33.123,22.618-40.135,32.394c-1.594-0.293-3.234-0.455-4.912-0.455c-14.785,0-26.834,11.91-27.074,26.64
	c-9.564,3.246-18.421,8.255-26.133,14.652c-14.745-12.28-33.138-18.985-52.527-18.985c-7.138,0-14.226,0.917-21.066,2.724
	c-4.005,1.058-6.394,5.162-5.335,9.167c1.058,4.005,5.162,6.395,9.167,5.335c5.591-1.477,11.39-2.226,17.234-2.226
	c15.369,0,29.977,5.152,41.841,14.617c-4.868,5.811-8.959,12.302-12.075,19.322c-1.558,3.51-2.085,7.256-1.695,10.868
	c-6.437-0.16-12.837,1.556-18.422,5.075c-5.86,3.693-13.436,3.694-19.298-0.001c-9.942-6.264-22.586-6.77-32.997-1.319
	c-5.415,2.834-11.89,2.419-16.896-1.085c-2.339-1.637-3.172-4.771-1.981-7.452c3.777-8.511,9.188-16.031,16.08-22.351
	c3.054-2.799,3.259-7.544,0.46-10.597c-2.8-3.054-7.544-3.259-10.597-0.46c-8.423,7.723-15.035,16.915-19.654,27.322
	c-2.077,4.68-2.325,9.781-1,14.422c-1.541,6.208-2.325,12.564-2.325,18.933c0,7.225,0.986,14.331,2.913,21.209
	c-4.888,3.441-9.089,7.891-12.313,13.189c-7.381,12.134-8.366,26.499-3.478,38.987c-4.242-0.416-8.532-0.646-12.87-0.646h-20.46
	C11.768,289.013,0,300.781,0,315.245c0,18.761,9.159,36.415,24.5,47.224c20.2,14.231,46.817,27.887,71.202,36.528
	c10.404,3.688,21.24,5.557,32.207,5.557h1.205v6.024c0,12.202,9.927,22.128,22.128,22.128h209.516
	c12.201,0,22.128-9.927,22.128-22.128v-6.024h1.205c10.967,0,21.803-1.87,32.207-5.557c5.656-2.004,11.494-4.297,17.35-6.814
	c3.806-1.635,5.565-6.046,3.93-9.852c-1.635-3.805-6.046-5.567-9.852-3.93c-5.559,2.388-11.089,4.56-16.439,6.457
	c-8.792,3.116-17.942,4.696-27.197,4.696H127.909c-9.255,0-18.405-1.58-27.197-4.696c-23.167-8.21-48.429-21.164-67.573-34.652
	C21.781,342.204,15,329.135,15,315.245c0-6.193,5.039-11.232,11.232-11.232h20.461c9.08,0,17.929,1.043,26.411,3.08
	c0.045,0.013,0.09,0.022,0.135,0.034c2.411,0.582,4.798,1.232,7.145,1.977C152.95,332.135,245.667,332.8,256,332.8
	c10.333,0,103.05-0.665,175.615-23.696c2.357-0.748,4.753-1.4,7.173-1.984c0.033-0.009,0.066-0.016,0.1-0.025
	c8.484-2.038,17.336-3.082,26.418-3.082h20.461c6.193,0,11.232,5.039,11.232,11.232c0,13.889-6.781,26.959-18.139,34.961
	c-6.066,4.274-12.794,8.531-19.996,12.655c-3.595,2.058-4.84,6.641-2.782,10.235c2.06,3.595,6.639,4.84,10.235,2.782
	c7.607-4.355,14.734-8.867,21.182-13.41c15.341-10.809,24.5-28.462,24.5-47.224C512,300.781,500.232,289.013,485.768,289.013z
	 M144.114,404.554h223.771v6.024c0,3.931-3.197,7.128-7.128,7.128H151.242c-3.931,0-7.128-3.198-7.128-7.128V404.554z
	 M424.56,216.274c0,5.007-0.59,9.941-1.733,14.747c-0.386-0.105-0.769-0.217-1.159-0.312c-11.465-2.792-23.332-0.952-33.412,5.182
	c-10.421,6.34-34.058,12.807-63.031,17.497c6.083-11.332,9.335-24.06,9.335-37.114c0-2.501-0.128-4.999-0.367-7.487
	c3.211,0.081,6.374,1.008,9.162,2.766c5.36,3.377,11.503,5.066,17.646,5.066c6.144-0.001,12.286-1.689,17.646-5.066
	c5.439-3.427,12.354-3.702,18.044-0.722c8.753,4.583,18.94,4.726,27.682,0.65C424.493,213.076,424.56,214.674,424.56,216.274z
	 M361,148.98c26.583,0,50.733,15.711,61.524,40.024c1.189,2.682,0.356,5.816-1.981,7.453c-5.007,3.504-11.48,3.92-16.895,1.086
	c-10.411-5.453-23.057-4.946-33,1.32c-5.859,3.694-13.436,3.693-19.297,0c-5.584-3.519-11.984-5.235-18.421-5.075
	c0.389-3.612-0.138-7.358-1.696-10.868c-3.141-7.078-7.196-13.577-12.012-19.37C331.076,154.115,345.658,148.98,361,148.98z
	 M256.733,126.674c6.664,0,12.086,5.421,12.086,12.085c0,1.141-0.17,2.241-0.466,3.288c-0.006,0.023-0.016,0.044-0.022,0.067
	c-0.01,0.037-0.015,0.074-0.024,0.112c-1.494,4.979-6.114,8.619-11.573,8.619c-5.537,0-10.205-3.748-11.629-8.837
	c-0.008-0.035-0.012-0.07-0.021-0.105c-0.012-0.047-0.029-0.09-0.042-0.136c-0.248-0.964-0.394-1.967-0.394-3.007
	C244.648,132.095,250.069,126.674,256.733,126.674z M194.477,189.004c7.495-16.886,21.865-30.037,39.13-36.163
	c4.762,7.791,13.347,13.003,23.127,13.003c9.605,0,18.051-5.029,22.862-12.588c8.689,3.24,16.522,8.177,23.083,14.502
	c0.151,0.186,0.311,0.367,0.483,0.542c0.169,0.171,0.345,0.33,0.526,0.482c5.721,5.758,10.44,12.568,13.837,20.223
	c1.189,2.681,0.356,5.814-1.981,7.451c-5.009,3.505-11.483,3.921-16.896,1.086c-10.413-5.453-23.057-4.946-32.998,1.32
	c-5.86,3.693-13.437,3.694-19.299-0.001c-9.942-6.265-22.587-6.771-32.998-1.319c-5.414,2.835-11.887,2.419-16.895-1.086
	C194.12,194.819,193.286,191.685,194.477,189.004z M192.629,211.48c8.743,4.077,18.93,3.934,27.683-0.65
	c5.691-2.98,12.607-2.704,18.043,0.722c5.359,3.377,11.503,5.066,17.645,5.066c6.143,0,12.286-1.688,17.647-5.066
	c5.435-3.427,12.349-3.703,18.042-0.722c8.753,4.583,18.94,4.726,27.683,0.65c0.122,1.595,0.189,3.194,0.189,4.794
	c0,14.569-5,28.639-14.129,39.927c-0.67,0.083-1.338,0.167-2.011,0.247c-3.771,0.451-6.609,3.65-6.609,7.447v17.807
	c0,6.242-5.078,11.32-11.319,11.32s-11.319-5.078-11.319-11.32v-14.765c0-2.036-0.828-3.984-2.293-5.398
	c-1.466-1.414-3.461-2.18-5.477-2.097c-3.645,0.131-7.144,0.198-10.401,0.198c-16.012,0-33.001-1.277-49.342-3.328
	c-9.186-11.307-14.218-25.417-14.218-40.038C192.44,214.674,192.507,213.076,192.629,211.48z M87.629,211.481
	c8.742,4.075,18.929,3.933,27.683-0.65c5.69-2.979,12.604-2.704,18.043,0.722c5.359,3.377,11.503,5.066,17.645,5.066
	s12.286-1.688,17.645-5.066c2.788-1.757,5.952-2.686,9.163-2.766c-0.239,2.489-0.367,4.987-0.367,7.488
	c0,13.061,3.253,25.79,9.339,37.122c-19.956-3.353-37.727-7.642-49.841-11.808c-2.296-0.789-4.823-0.42-6.796,0.987
	c-1.973,1.408-3.144,3.682-3.144,6.105v11.098c0,6.242-5.078,11.319-11.319,11.319s-11.319-5.078-11.319-11.319v-22.607
	c0-2.13-0.905-4.159-2.49-5.581c-1.586-1.423-3.705-2.102-5.817-1.875c-2.351,0.255-4.646,0.702-6.88,1.304
	c-1.143-4.806-1.732-9.738-1.732-14.745C87.44,214.675,87.507,213.076,87.629,211.481z M432.884,293.144
	c-1.951,0.513-3.891,1.056-5.806,1.664C356.665,317.155,266.096,317.8,256,317.8s-100.665-0.645-171.078-22.993
	c-1.915-0.608-3.854-1.151-5.805-1.663c-8.636-9.543-10.042-23.53-3.262-34.676c2.851-4.686,6.856-8.372,11.571-10.788
	c0.096-0.044,0.191-0.086,0.284-0.133c0.543-0.271,1.089-0.537,1.649-0.774v13.005c0,14.513,11.807,26.319,26.319,26.319
	s26.319-11.807,26.319-26.319v-0.889c28.656,8.251,73.69,15.751,114.001,15.751c1.036,0,2.094-0.006,3.171-0.019v7.082
	c0,14.513,11.807,26.32,26.319,26.32s26.319-11.807,26.319-26.32V270.51c31.05-4.113,67.682-11.729,84.243-21.804
	c6.657-4.051,14.495-5.266,22.066-3.422c2.15,0.523,4.201,1.283,6.135,2.244c0.08,0.041,0.16,0.081,0.242,0.12
	c4.773,2.428,8.796,6.131,11.649,10.821C442.926,269.615,441.52,283.602,432.884,293.144z"/>
<g>
</g>
<g>
</g>
<g>
</g>
<g>
</g>
<g>
</g>
<g>
</g>
<g>
</g>
<g>
</g>
<g>
</g>
<g>
</g>
<g>
</g>
<g>
</g>
<g>
</g>
<g>
</g>
<g>
</g>
</svg>
