<svg height="72pt" viewBox="-51 0 511 511.99984" width="72pt" xmlns="http://www.w3.org/2000/svg"><path d="m119.664062 100.539062c-9.820312 3.574219-20.679687-1.488281-24.253906-11.3125-6.371094-17.5-18.492187-38.683593-33.40625-45.636718-9.472656-4.417969-13.570312-15.675782-9.152344-25.148438 4.414063-9.472656 15.675782-13.574218 25.148438-9.15625 31.082031 14.492188 47.402344 51.679688 52.976562 66.996094 3.574219 9.824219-1.488281 20.683594-11.3125 24.257812zm0 0" fill="#d6a17a"/><path d="m71.097656 163.316406c-13.25-36.394531 5.519532-76.640625 41.914063-89.886718 36.398437-13.25 76.644531 5.515624 89.890625 41.914062 20.824218 57.210938 73.808594 75.3125 92.210937 125.871094 21.484375 59.027344-8.949219 124.289062-67.976562 145.773437-59.023438 21.484375-124.285157-8.949219-145.769531-67.976562-18.402344-50.558594 10.550781-98.480469-10.269532-155.695313zm0 0" fill="#b4de87"/><path d="m105.519531 76.671875c-31.402343 15.730469-46.726562 52.839844-34.421875 86.644531 20.820313 57.214844-8.132812 105.136719 10.269532 155.695313 21.484374 59.027343 86.746093 89.457031 145.773437 67.976562 33.765625-12.289062 58.167969-38.910156 68.851563-70.492187-204.335938 10.171875-198.832032-163.128906-190.472657-239.824219zm0 0" fill="#92d18a"/><path d="m205.703125 314.980469c-53.265625 23.808593-109.914063 30.09375-163.484375 21.332031-29.929688-4.894531-46.78125 33.277344-22.929688 52.003906 63.875 50.15625 152.710938 64.109375 232.007813 28.664063 79.296875-35.445313 128.148437-110.941407 133.382813-191.984375 1.953124-30.261719-37.730469-43.164063-54.042969-17.601563-29.203125 45.761719-71.667969 83.777344-124.933594 107.585938zm0 0" fill="#f0a748"/><path d="m67.96875 339.335938c-8.644531-.621094-17.238281-1.628907-25.75-3.023438-29.929688-4.894531-46.78125 33.277344-22.929688 52.003906 7.953126 6.246094 16.296876 11.929688 24.964844 17.027344zm0 0" fill="#d6a17a"/><path d="m353.726562 104.527344c-12.289062 1.367187-21.050781 12.648437-20.226562 24.984375l3.945312 59.039062c.175782 2.582031-.363281 5.171875-1.628906 7.429688-1.507812 2.695312-2.664062 5.742187-3.363281 9.144531-11.285156 54.835938-38.199219 107.09375-80.746094 149.640625-42.605469 42.609375-94.953125 69.539063-149.875 80.792969-30.660156 6.28125-32.597656 49.222656-2.703125 58.492187 80 24.796875 170.714844 5.53125 234.054688-57.808593 63.339844-63.339844 82.605468-154.058594 57.808594-234.054688-1.195313-3.851562-2.953126-7.152344-5.121094-9.941406-1.65625-2.128906-2.621094-4.710938-2.800782-7.40625l-3.953124-59.097656c-.867188-12.953126-12.351563-22.664063-25.390626-21.214844zm0 0" fill="#f7d378"/><path d="m333.5 129.511719 1.765625 26.417969c15.308594 1.011718 30.679687-.222657 45.625-3.644532l-1.773437-26.542968c-.867188-12.953126-12.347657-22.664063-25.390626-21.214844-12.289062 1.367187-21.050781 12.648437-20.226562 24.984375zm0 0" fill="#d6a17a"/><path d="m127.988281 428.941406c-8.554687 2.582032-17.203125 4.773438-25.917969 6.566406-30.632812 6.304688-32.816406 49.28125-2.945312 58.539063 9.964844 3.089844 20.097656 5.492187 30.320312 7.214844zm0 0" fill="#d6a17a"/><path d="m137.707031 256.484375c-3.464843-9.523437-15.96875-13.710937-27.925781-9.359375-11.953125 4.351562-18.839844 15.597656-15.371094 25.117188 3.464844 9.523437 15.964844 13.710937 27.921875 9.359374 11.957031-4.351562 18.839844-15.597656 15.375-25.117187zm0 0" fill="#fff"/><path d="m211.757812 229.519531c3.464844 9.523438 15.96875 13.714844 27.925782 9.363281 11.953125-4.351562 18.839844-15.597656 15.371094-25.121093-3.464844-9.519531-15.964844-13.710938-27.921876-9.359375-11.957031 4.351562-18.839843 15.597656-15.375 25.117187zm0 0" fill="#fff"/><path d="m214.527344 216.542969c.855468 0 1.71875-.144531 2.566406-.453125 3.894531-1.417969 5.898438-5.722656 4.484375-9.613282l-2.785156-7.644531c-1.417969-3.890625-5.71875-5.902343-9.613281-4.480469-3.890626 1.414063-5.898438 5.71875-4.480469 9.613282l2.78125 7.644531c1.109375 3.042969 3.984375 4.933594 7.046875 4.933594zm183.628906-16.578125c-1.417969-4.566406-3.558594-8.710938-6.363281-12.320313-.730469-.9375-1.160157-2.082031-1.242188-3.304687l-3.949219-59.097656c-.558593-8.351563-4.402343-15.910157-10.824218-21.28125-6.417969-5.367188-14.542969-7.8125-22.878906-6.886719-16.1875 1.800781-27.996094 16.269531-26.882813 32.9375l3.949219 59.039062c.078125 1.1875-.160156 2.316407-.6875 3.261719-1.582032 2.816406-2.785156 5.882812-3.636719 9.117188-.460937.636718-.90625 1.277343-1.324219 1.929687-7.128906 11.171875-15.003906 21.757813-23.554687 31.710937-9.804688-24.160156-27.105469-41.339843-43.882813-57.960937-18.078125-17.90625-36.765625-36.421875-46.925781-64.332031-7.09375-19.484375-21.347656-35.042969-40.140625-43.804688-11.648438-5.433594-24.175781-7.84375-36.660156-7.210937-8.371094-18.566407-24.878906-46.632813-51.980469-59.273438-6.398437-2.980469-13.574219-3.292969-20.203125-.882812-6.632812 2.414062-11.929688 7.269531-14.914062 13.664062-2.980469 6.398438-3.292969 13.574219-.878907 20.207031 2.414063 6.632813 7.265625 11.929688 13.664063 14.910157 8.742187 4.078125 18.296875 16.078125 25.574218 31.859375-8.808593 8.117187-15.738281 18.238281-20.066406 29.730468-1.460937 3.878907.496094 8.203126 4.371094 9.664063s8.203125-.496094 9.664062-4.371094c6.457032-17.128906 20.015626-30.539062 37.199219-36.792969 4.398438-1.605468 8.898438-2.679687 13.433594-3.273437.257813-.019531.519531-.050781.78125-.097656 11.410156-1.34375 23 .484375 33.675781 5.460937 15.164063 7.070313 26.664063 19.621094 32.386719 35.34375 11.308594 31.066406 31.210937 50.789063 50.460937 69.855469 17.179688 17.019531 33.40625 33.09375 41.75 56.015625.453126 1.246094.886719 2.511719 1.296876 3.785156-24.605469 25.355469-53.933594 45.910156-86.722657 60.566406-33.984375 15.191407-70.214843 23.378907-106.839843 24.339844-2.886719-5.113281-5.367188-10.484375-7.386719-16.023437-8.339844-22.921875-6.242188-45.664063-4.023438-69.742188 2.488281-26.984375 5.0625-54.882812-6.246093-85.953125-1.488282-4.085937-2.550782-8.316406-3.164063-12.570312-.589844-4.101563-4.386719-6.941406-8.488281-6.359375-4.101563.589843-6.949219 4.394531-6.359375 8.492187.761719 5.277344 2.078125 10.515625 3.917969 15.566406 10.15625 27.910157 7.742187 54.109376 5.40625 79.445313-2.277344 24.667969-4.628907 50.171875 4.863281 76.25 1.339843 3.683594 2.863281 7.300781 4.550781 10.835937-11.824219-.410156-23.660156-1.574218-35.445312-3.503906-16.878907-2.761718-32.847657 5.910156-39.726563 21.574219-6.863281 15.625-2.460937 33.195313 10.957031 43.730469 7.988282 6.273437 16.40625 11.996094 25.152344 17.171875.402344.292969.832031.550781 1.296875.761719 14.796875 8.632812 30.539063 15.664062 46.871094 20.902343-10.335938 6.308594-17.058594 17.316407-17.691407 30.152344-.863281 17.53125 9.835938 32.804687 26.621094 38.007813 10.148438 3.148437 20.496094 5.609374 30.957032 7.378906.273437.058594.554687.109375.839843.136718 13.121094 2.175782 26.414063 3.273438 39.722657 3.273438 15.128906 0 30.273437-1.414062 45.175781-4.253906 39.589843-7.542969 76.921875-25.105469 107.953125-50.785156 3.191406-2.644532 3.636718-7.371094.996094-10.5625-2.640626-3.191407-7.367188-3.636719-10.558594-.996094-29.089844 24.074218-64.085938 40.539062-101.199219 47.609375-24.394531 4.648437-49.460937 5.199219-73.976563 1.769531l-1.214843-60.355469c45.601562-14.707031 87.097656-40.046875 121.410156-74.359375 1.453125-1.453125 2.890625-2.925781 4.3125-4.40625.1875-.179687.363281-.367187.53125-.558594 39.511719-41.332031 66.402344-92.480468 77.921875-148.378906.019531-.074218.035156-.148437.050781-.222656.527344-2.484375 1.375-4.792969 2.53125-6.855469 1.953125-3.492187 2.84375-7.5 2.570313-11.597656l-1.625-24.3125c.777344.007813 1.558594.035156 2.335937.035156 9.492188 0 18.96875-.824219 28.335938-2.457031l1.605469 24.027344c.285156 4.214844 1.792968 8.195312 4.367187 11.507812 1.695313 2.179688 2.996094 4.722656 3.875 7.554688 11.375 36.695312 13.203125 75.996094 5.285156 113.652344-8.109375 38.570312-26.332031 74.488281-52.691406 103.867187-2.765625 3.085937-2.511719 7.828125.574219 10.59375 3.082031 2.765625 7.824218 2.507813 10.589844-.574219 28.121093-31.339844 47.554687-69.65625 56.207031-110.800781 8.4375-40.144531 6.492187-82.046875-5.636719-121.175781zm-287.707031-133.585938c-4.859375 1.769532-9.46875 4.019532-13.808594 6.660156-5.960937-12.125-16.597656-29.3125-31.464844-36.246093-5.710937-2.664063-8.191406-9.472657-5.527343-15.183594 1.289062-2.765625 3.578124-4.863281 6.445312-5.910156 2.867188-1.042969 5.972656-.90625 8.738281.382812 21.140625 9.859375 35.042969 31.765625 42.878907 48.042969-2.441407.632812-4.863282 1.378906-7.261719 2.253906zm-70.125 327.714844c-5.644531-3.640625-11.125-7.53125-16.40625-11.675781-9.800781-7.699219-9.621094-18.761719-6.488281-25.898438 3.152343-7.171875 11.214843-14.828125 23.578124-12.804687 5.527344.90625 11.070313 1.644531 16.617188 2.230468zm61.023437 92.792969c-12.511718-3.878907-16.480468-14.785157-16.078125-22.945313.398438-8.078125 5.367188-18.433594 18.066407-21.035156 4.6875-.960938 9.339843-2.042969 13.957031-3.214844.039062-.011718.082031-.023437.121093-.03125 1.09375-.28125 2.183594-.558594 3.273438-.851562l1.074219 53.359375c-6.878907-1.441407-13.695313-3.199219-20.414063-5.28125zm150.039063-142.542969c-8.160157 4.925781-16.8125 9.421875-26.425781 13.722656-27.378907 12.238282-71.222657 27.175782-135.582032 15.675782-4.078125-.726563-7.972656 1.988281-8.703125 6.066406-.726562 4.078125 1.988281 7.972656 6.066407 8.703125 17.257812 3.082031 33.128906 4.375 47.695312 4.375 31.101562 0 56.210938-5.898438 75.980469-12.84375-25.757813 18.503906-54.335938 32.605469-84.75 41.769531-.019531.003906-.039063.007812-.058594.015625-3.414063 1.027344-6.851563 1.992187-10.3125 2.894531-21.621094-4.441406-42.53125-12.1875-61.839844-22.8125l19.664063-54.734375c6.144531.324219 12.285156.441407 18.417968.378907h.03125c.015626 0 .027344-.003907.042969-.003907 40.148438-.421875 79.925781-9.085937 117.148438-25.722656 41.0625-18.355469 76.976562-45.496094 105.5-79.476563-13.5 37.867188-34.824219 72.539063-62.875 101.992188zm90.914062-195.625-1.320312-19.710938c-.566407-8.492187 5.523437-16.132812 13.574219-17.027343 4.230468-.46875 8.347656.765625 11.597656 3.484375s5.195312 6.546875 5.480468 10.777344l1.335938 20.007812c-10.125 1.875-20.390625 2.699219-30.667969 2.46875zm-177.542969 91.488281c2.84375 0 5.691407-.492187 8.417969-1.484375 6.691407-2.433594 12-7.648437 14.5625-14.300781 1.488281-3.863281-.4375-8.207031-4.300781-9.695313-3.863281-1.488281-8.207031.4375-9.695312 4.300782-1.003907 2.609375-3.082032 4.648437-5.695313 5.601562s-5.515625.722656-7.960937-.628906c-3.628907-2.003906-8.191407-.6875-10.195313 2.9375s-.6875 8.1875 2.9375 10.191406c3.695313 2.042969 7.804687 3.078125 11.929687 3.078125zm196.785157 8.917969c-4.085938-.652344-7.933594 2.132812-8.589844 6.226562-11.464844 71.816407-43.539063 110.867188-66.664063 133.996094-21.015624 21.011719-56.179687 50.492188-118.671874 63.816406-4.050782.863282-6.632813 4.847657-5.769532 8.898438.75 3.523438 3.863282 5.9375 7.328125 5.9375.519531 0 1.042969-.054688 1.570313-.164062 66.382812-14.15625 103.789062-45.519532 126.148437-67.882813 24.605469-24.605469 58.71875-66.117187 70.871094-142.238281.65625-4.089844-2.132813-7.9375-6.222656-8.589844zm-239.121094.945312c.851563 0 1.714844-.148437 2.5625-.453124 3.894531-1.417969 5.898437-5.722657 4.484375-9.613282l-2.785156-7.648437c-1.417969-3.890625-5.71875-5.898438-9.613282-4.480469-3.890624 1.414062-5.898437 5.71875-4.480468 9.613281l2.78125 7.644531c1.109375 3.046876 3.984375 4.9375 7.050781 4.9375zm0 0"/></svg>
