<?xml version="1.0" encoding="iso-8859-1"?>
<!-- Generator: Adobe Illustrator 19.0.0, SVG Export Plug-In . SVG Version: 6.00 Build 0)  -->
<svg version="1.1" id="Capa_1" xmlns="http://www.w3.org/2000/svg" xmlns:xlink="http://www.w3.org/1999/xlink" x="0px" y="0px"
	 viewBox="0 0 511.999 511.999" style="enable-background:new 0 0 511.999 511.999;" xml:space="preserve">
<circle style="fill:#FADC60;" cx="146.162" cy="238.598" r="108.836"/>
<circle style="fill:#C86D5C;" cx="365.833" cy="238.598" r="108.836"/>
<path style="fill:#EFEDEE;" d="M192.346,406.735c0,0-36.602,23.963-36.602,49.425h200.513c0-25.461-36.602-49.425-36.602-49.425
	l-63.654-31.452L192.346,406.735z"/>
<path style="fill:#F2C42C;" d="M74.065,157.071c-22.533,19.94-36.745,49.074-36.745,81.529c0,60.111,48.73,108.841,108.84,108.841
	S255,298.712,255,238.601c0-14.92-3.005-29.138-8.438-42.085c-54.829-1.154-106.515-12.362-150.012-32.604
	C89.323,160.549,81.797,158.267,74.065,157.071z"/>
<path style="fill:#AD4F3D;" d="M437.932,157.07c-7.731,1.196-15.256,3.479-22.482,6.84c-43.499,20.242-95.187,31.451-150.015,32.605
	c-5.433,12.946-8.438,27.163-8.438,42.085c0,60.111,48.73,108.841,108.84,108.841c60.111,0,108.84-48.73,108.84-108.841
	C474.677,206.144,460.466,177.012,437.932,157.07z"/>
<circle style="fill:#FF98C5;" cx="255.998" cy="226.619" r="108.836"/>
<path style="fill:#EB5E8A;" d="M364.84,226.618c0-14.888-2.993-29.076-8.404-42.001c-31.464,7.911-65.373,12.004-100.437,12.004
	c-35.065,0-68.973-4.093-100.436-12.003c-5.411,12.924-8.404,27.112-8.404,42c0,60.111,48.73,108.841,108.84,108.841
	S364.84,286.73,364.84,226.618z"/>
<path style="fill:#FFE780;" d="M255.999,334.01c-78.216,0-153.395-15.747-217.412-45.536c-26.887-12.511-38.54-44.45-26.029-71.338
	c12.511-26.887,44.449-38.541,71.338-26.029C133.817,214.339,193.33,226.617,256,226.617c62.669,0,122.182-12.279,172.107-35.511
	c26.889-12.51,58.825-0.857,71.337,26.03c12.511,26.888,0.858,58.825-26.029,71.337C409.395,318.263,334.214,334.01,255.999,334.01z
	"/>
<path style="fill:#FADC60;" d="M9.45,253.927c4.021,14.705,14.233,27.612,29.136,34.548
	c64.017,29.789,139.196,45.536,217.412,45.536c78.215,0,153.395-15.747,217.414-45.536c14.904-6.935,25.115-19.842,29.136-34.547
	H9.45V253.927z"/>
<path style="fill:#D2D2D2;" d="M319.654,406.735l-63.654-31.452l-63.654,31.452c0,0-15.106,9.902-25.91,23.73
	c8.453,0.837,17.089,1.267,25.91,1.267h127.309c8.821,0,17.457-0.429,25.91-1.267C334.76,416.637,319.654,406.735,319.654,406.735z"
	/>
<path style="fill:#EFEDEE;" d="M479.785,283.923H32.215c-12.012,0-19.62,12.94-13.72,23.404
	c20.092,35.635,70.489,99.408,173.851,99.408h127.309c103.362,0,153.758-63.773,173.851-99.408
	C499.405,296.863,491.797,283.923,479.785,283.923z"/>
<circle style="fill:#FD6F71;" cx="255.998" cy="117.773" r="26.962"/>
<path d="M170.593,359.088c4.141,0,7.499-3.358,7.499-7.499v-15.457c0-4.142-3.358-7.499-7.499-7.499s-7.499,3.357-7.499,7.499
	v15.457C163.094,355.731,166.451,359.088,170.593,359.088z"/>
<path d="M341.408,359.088c4.141,0,7.499-3.358,7.499-7.499v-15.457c0-4.142-3.358-7.499-7.499-7.499
	c-4.141,0-7.499,3.357-7.499,7.499v15.457C333.909,355.731,337.266,359.088,341.408,359.088z"/>
<path d="M256.001,367.339c10.38,0,20.121-4.333,26.726-11.89c2.726-3.118,2.408-7.855-0.711-10.582
	c-3.119-2.727-7.855-2.409-10.582,0.71c-3.757,4.298-9.382,6.763-15.434,6.763c-6.052,0-11.676-2.465-15.434-6.763
	c-2.727-3.119-7.463-3.437-10.582-0.711c-3.119,2.727-3.437,7.463-0.711,10.582C235.879,363.006,245.621,367.339,256.001,367.339z"
	/>
<path d="M12.147,287.946c-4.202,7.193-4.271,15.815-0.185,23.064c10.196,18.082,28.502,44.115,57.82,65.449
	c29.391,21.387,63.728,33.772,102.292,36.948c-11.105,10.386-23.83,25.946-23.83,42.753c0,4.141,3.358,7.499,7.499,7.499h200.513
	c4.141,0,7.499-3.358,7.499-7.499c0-16.808-12.725-32.368-23.83-42.753c38.564-3.177,72.902-15.561,102.292-36.948
	c29.317-21.334,47.624-47.367,57.819-65.448c4.087-7.248,4.019-15.87-0.183-23.063c-1.318-2.257-2.958-4.228-4.844-5.873
	c17.189-17.89,22.084-44.781,11.233-68.101c-7.902-16.98-22.659-28.623-39.455-33.199c-20.744-36.173-59.11-58.513-100.949-58.513
	c-15.224,0-29.973,2.894-43.909,8.588c-9.565-6.623-20.174-11.853-31.554-15.376c-0.921-13.87-10.078-25.522-22.617-30.088
	c3.272-7.975,9.032-16.846,19.179-23.187c3.512-2.195,4.579-6.822,2.385-10.334c-2.195-3.512-6.82-4.58-10.334-2.385
	c-15.063,9.414-22.686,22.858-26.546,34.022c-16.581,1.709-29.703,15.224-30.816,31.972c-11.379,3.523-21.989,8.754-31.554,15.377
	c-13.937-5.695-28.686-8.588-43.909-8.588c-41.827,0-80.187,22.323-100.936,58.478c-1.665,0.455-3.321,0.966-4.96,1.564
	c-15.355,5.603-27.609,16.85-34.506,31.67c-10.852,23.32-5.957,50.211,11.232,68.1C15.105,283.719,13.465,285.69,12.147,287.946z
	 M347.438,448.661H164.57c4.798-14.203,21.412-28.334,30.084-34.427h122.697C326.033,420.313,342.651,434.423,347.438,448.661z
	 M365.837,137.259c32.601,0,62.79,15.565,81.732,41.406c-0.642,0.033-1.281,0.092-1.92,0.145c-0.04,0.003-0.08,0.006-0.12,0.009
	c-7.076,0.599-14.149,2.495-20.587,5.49c-13.065,6.077-26.547,11.27-40.274,15.646c-1.313,0.419-14.503,4.246-14.492,4.302
	c-0.01-0.048-0.022-0.097-0.031-0.145c-0.771-3.906-1.767-7.778-2.938-11.583c-5.929-19.25-16.817-36.808-31.566-50.7
	C345.357,138.793,355.469,137.259,365.837,137.259z M343.169,210.662c-28.664,5.762-57.942,8.457-87.171,8.457
	c-32.331,0-64.719-3.296-96.276-10.394c-1.112-0.25-2.223-0.505-3.333-0.765c1.261-6.703,3.193-13.274,5.784-19.583
	c11.086-27.007,33.615-48.518,61.779-57.921c0.036,0.092,0.082,0.179,0.119,0.27c5.182,12.75,18.163,21.512,31.927,21.512
	c13.721,0,26.765-8.824,31.929-21.518c0.036-0.089,0.081-0.174,0.116-0.264c28.151,9.398,50.672,30.894,61.763,57.884
	c2.54,6.18,4.452,12.601,5.714,19.163c0.029,0.152,0.056,0.305,0.085,0.459C355.604,208.569,344.471,210.4,343.169,210.662z
	 M256,98.315c10.732,0,19.462,8.731,19.462,19.462c0,10.56-8.915,19.454-19.462,19.462c-10.56,0-19.462-8.912-19.462-19.462
	C236.537,107.046,245.268,98.315,256,98.315z M146.161,137.259c10.367,0,20.479,1.534,30.195,4.57
	c-14.984,14.113-25.982,32.012-31.844,51.623c-1.05,3.511-1.944,7.06-2.659,10.655c-0.01,0.05-0.023,0.099-0.032,0.149
	c-16.7-4.589-33.097-10.325-48.944-17.319c-9.16-4.042-18.327-7.75-28.443-8.281C83.378,152.821,113.564,137.259,146.161,137.259z
	 M19.357,220.3c6.086-13.079,18.275-22.725,32.374-25.719c15.826-3.36,30.884,4.552,45.112,10.313
	c50.338,20.376,104.999,29.222,159.155,29.222c59.916,0,120.726-10.843,175.27-36.211c22.819-10.614,50.767-0.401,61.375,22.395
	c9.213,19.798,3.405,43.013-13.742,56.124H132.764c-4.141,0-7.499,3.358-7.499,7.499c0,4.141,3.358,7.499,7.499,7.499h347.019
	c0.269,0,0.531,0.02,0.791,0.042c0.031,0.003,0.063,0.002,0.094,0.004c3.681,0.36,5.567,2.902,6.234,4.042
	c0.712,1.22,2.145,4.452,0.069,8.132c-20.128,35.701-68.632,95.593-167.318,95.593H192.346c-98.684,0-147.189-59.891-167.318-95.592
	c-2.075-3.681-0.643-6.914,0.07-8.133c0.667-1.142,2.554-3.683,6.233-4.042c0.031-0.002,0.063-0.001,0.094-0.004
	c0.26-0.022,0.523-0.042,0.792-0.042h70.553c4.141,0,7.499-3.358,7.499-7.499c0-4.141-3.358-7.499-7.499-7.499H33.098
	C15.952,263.314,10.144,240.099,19.357,220.3z"/>
<g>
</g>
<g>
</g>
<g>
</g>
<g>
</g>
<g>
</g>
<g>
</g>
<g>
</g>
<g>
</g>
<g>
</g>
<g>
</g>
<g>
</g>
<g>
</g>
<g>
</g>
<g>
</g>
<g>
</g>
</svg>
