<svg height="479pt" viewBox="0 -47 479.96332 479" width="479pt" xmlns="http://www.w3.org/2000/svg"><path d="m111.949219 160.480469c20 0 20 16 40 16 8.144531-.09375 15.914062-3.425781 21.601562-9.253907-7.707031-27.640624-32.886719-46.761718-61.582031-46.761718s-53.875 19.121094-61.578125 46.761718c5.679687 5.839844 13.457031 9.171876 21.605469 9.253907 20 0 20-16 39.953125-16zm0 0" fill="#238892"/><path d="m151.996094 176.480469c-20 0-20-16-40-16s-20 16-40 16c-8.140625-.078125-15.917969-3.40625-21.597656-9.238281-7.355469 26.089843 2.527343 53.984374 24.664062 69.628906 22.140625 15.644531 51.730469 15.644531 73.871094 0 22.136718-15.644532 32.019531-43.539063 24.664062-69.628906-5.6875 5.824218-13.460937 9.148437-21.601562 9.238281zm0 0" fill="#7fcac9"/><path d="m239.949219 160.480469c20 0 20 16 40 16 8.144531-.09375 15.914062-3.425781 21.601562-9.253907-7.683593-27.679687-32.878906-46.835937-61.601562-46.835937-28.722657 0-53.917969 19.15625-61.597657 46.835937 5.6875 5.851563 13.484376 9.183594 21.644532 9.253907 20 0 20-16 39.953125-16zm0 0" fill="#e9686a"/><path d="m279.996094 176.480469c-20 0-20-16-40-16s-20 16-40 16c-8.140625-.078125-15.917969-3.40625-21.597656-9.238281-7.355469 26.089843 2.527343 53.984374 24.664062 69.628906 22.140625 15.644531 51.730469 15.644531 73.871094 0 22.136718-15.644532 32.019531-43.539063 24.664062-69.628906-5.6875 5.824218-13.460937 9.148437-21.601562 9.238281zm0 0" fill="#f98c96"/><path d="m367.949219 160.480469c20 0 20 16 40 16 8.144531-.09375 15.914062-3.425781 21.601562-9.253907-7.683593-27.679687-32.878906-46.835937-61.601562-46.835937-28.722657 0-53.917969 19.15625-61.597657 46.835937 5.6875 5.851563 13.484376 9.183594 21.644532 9.253907 20 0 20-16 39.953125-16zm0 0" fill="#fdbd40"/><path d="m407.996094 176.480469c-20 0-20-16-40-16s-20 16-40 16c-8.140625-.078125-15.917969-3.40625-21.597656-9.238281-7.355469 26.089843 2.527343 53.984374 24.664062 69.628906 22.140625 15.644531 51.730469 15.644531 73.871094 0 22.136718-15.644532 32.019531-43.539063 24.664062-69.628906-5.6875 5.824218-13.460937 9.148437-21.601562 9.238281zm0 0" fill="#e97424"/><path d="m79.996094 104.480469h64c8.839844 0 16 7.164062 16 16 0 8.835937-7.160156 16-16 16h-64c-8.835938 0-16-7.164063-16-16 0-8.835938 7.164062-16 16-16zm0 0" fill="#f98c96"/><path d="m95.996094 72.480469h32c8.839844 0 16 7.164062 16 16 0 8.835937-7.160156 16-16 16h-32c-8.835938 0-16-7.164063-16-16 0-8.835938 7.164062-16 16-16zm0 0" fill="#ffd782"/><path d="m111.996094 32.480469c-4.417969 0-8-3.582031-8-8v-16c0-4.417969 3.582031-8 8-8 4.417968 0 8 3.582031 8 8v16c0 4.417969-3.582032 8-8 8zm0 0" fill="#7fcac9"/><path d="m207.996094 104.480469h64c8.839844 0 16 7.164062 16 16 0 8.835937-7.160156 16-16 16h-64c-8.835938 0-16-7.164063-16-16 0-8.835938 7.164062-16 16-16zm0 0" fill="#f98c96"/><path d="m223.996094 72.480469h32c8.839844 0 16 7.164062 16 16 0 8.835937-7.160156 16-16 16h-32c-8.835938 0-16-7.164063-16-16 0-8.835938 7.164062-16 16-16zm0 0" fill="#ffd782"/><path d="m239.996094 32.480469c-4.417969 0-8-3.582031-8-8v-16c0-4.417969 3.582031-8 8-8 4.417968 0 8 3.582031 8 8v16c0 4.417969-3.582032 8-8 8zm0 0" fill="#7fcac9"/><path d="m335.996094 104.480469h64c8.839844 0 16 7.164062 16 16 0 8.835937-7.160156 16-16 16h-64c-8.835938 0-16-7.164063-16-16 0-8.835938 7.164062-16 16-16zm0 0" fill="#f98c96"/><path d="m351.996094 72.480469h32c8.839844 0 16 7.164062 16 16 0 8.835937-7.160156 16-16 16h-32c-8.835938 0-16-7.164063-16-16 0-8.835938 7.164062-16 16-16zm0 0" fill="#ffd782"/><g fill="#e9686a"><path d="m143.996094 48.480469c0 17.675781-14.324219 32-32 32-17.671875 0-32-14.324219-32-32 0-17.671875 14.328125-32 32-32 17.675781 0 32 14.328125 32 32zm0 0"/><path d="m271.996094 48.480469c0 17.675781-14.324219 32-32 32-17.671875 0-32-14.324219-32-32 0-17.671875 14.328125-32 32-32 17.675781 0 32 14.328125 32 32zm0 0"/><path d="m399.996094 48.480469c0 17.675781-14.324219 32-32 32-17.671875 0-32-14.324219-32-32 0-17.671875 14.328125-32 32-32 17.675781 0 32 14.328125 32 32zm0 0"/></g><path d="m367.996094 32.480469c-4.417969 0-8-3.582031-8-8v-16c0-4.417969 3.582031-8 8-8 4.417968 0 8 3.582031 8 8v16c0 4.417969-3.582032 8-8 8zm0 0" fill="#7fcac9"/><path d="m455.996094 251.882812c.03125 16.859376-11.871094 31.382813-28.40625 34.671876-61.804688 12.019531-124.628906 18.023437-187.59375 17.925781-62.960938.097656-125.785156-5.90625-187.589844-17.925781-16.535156-3.289063-28.4375-17.8125-28.410156-34.671876-.011719-10.476562 4.625-20.414062 12.660156-27.132812 8.03125-6.71875 18.636719-9.523438 28.941406-7.660156 57.5625 10.273437 115.925782 15.421875 174.398438 15.390625 58.476562.023437 116.839844-5.140625 174.402344-15.421875 10.304687-1.867188 20.90625.941406 28.941406 7.660156s12.671875 16.65625 12.65625 27.132812zm0 0" fill="#fdbd40"/><path d="m435.667969 376.480469h-391.34375c-11.730469 0-21.742188-8.480469-23.671875-20.054688l-12.65625-75.945312h464l-12.65625 75.945312c-1.925782 11.574219-11.9375 20.054688-23.671875 20.054688zm0 0" fill="#d3843d"/><path d="m319.996094 352.480469h-16c-4.417969 0-8-3.582031-8-8s3.582031-8 8-8h16c4.417968 0 8 3.582031 8 8s-3.582032 8-8 8zm0 0" fill="#ffd782"/><path d="m428.886719 352.480469h-76.890625c-4.417969 0-8-3.582031-8-8s3.582031-8 8-8h70.121094l4.214843-25.320313c.730469-4.355468 4.855469-7.300781 9.214844-6.570312 4.355469.730468 7.300781 4.851562 6.570313 9.210937l-5.335938 32c-.644531 3.859375-3.984375 6.683594-7.894531 6.679688zm0 0" fill="#ffd782"/><path d="m271.996094 352.480469h-216c-4.417969 0-8-3.582031-8-8s3.582031-8 8-8h216c4.417968 0 8 3.582031 8 8s-3.582032 8-8 8zm0 0" fill="#ffd782"/><path d="m44.324219 384.480469h391.34375c15.644531.023437 28.996093-11.296875 31.53125-26.734375l12.65625-75.945313c.386719-2.3125-.261719-4.679687-1.773438-6.476562-1.515625-1.792969-3.738281-2.832031-6.085937-2.84375h-13.261719c6.09375-11.160157 6.960937-24.441407 2.367187-36.300781-4.589843-11.863282-14.175781-21.097657-26.199218-25.242188 5.863281-14.601562 6.707031-30.738281 2.398437-45.871094-3.285156-11.535156-9.414062-22.058594-17.824219-30.609375 4.625-6.359375 5.808594-14.589843 3.167969-21.996093-2.644531-7.40625-8.769531-13.027344-16.375-15.027344 4.804688-11.789063-.523437-25.269532-12.085937-30.59375 6.070312-8.558594 7.523437-19.5625 3.886718-29.40625-3.636718-9.84375-11.894531-17.257813-22.074218-19.816406v-9.136719c0-4.417969-3.582032-8-8-8-4.417969 0-8 3.582031-8 8v9.136719c-10.164063 2.570312-18.40625 9.984374-22.035156 19.820312-3.628907 9.832031-2.175782 20.824219 3.882812 29.378906-11.5625 5.324219-16.890625 18.804688-12.085938 30.59375-7.605468 1.996094-13.730468 7.621094-16.375 15.027344-2.640624 7.402344-1.457031 15.636719 3.167969 21.996094-5.046875 5.179687-9.277343 11.089844-12.554687 17.535156-3.273438-6.445312-7.503906-12.355469-12.550782-17.535156 4.621094-6.359375 5.808594-14.59375 3.164063-21.996094-2.640625-7.40625-8.765625-13.03125-16.371094-15.027344 4.804688-11.789062-.523437-25.269531-12.089843-30.59375 6.0625-8.554687 7.515624-19.546875 3.886718-29.378906-3.628906-9.835938-11.875-17.25-22.039062-19.820312v-9.136719c0-4.417969-3.582032-8-8-8-4.417969 0-8 3.582031-8 8v9.136719c-10.164063 2.570312-18.40625 9.984374-22.035156 19.820312-3.628907 9.832031-2.175782 20.824219 3.882812 29.378906-11.5625 5.324219-16.890625 18.804688-12.085938 30.59375-7.605468 1.996094-13.730468 7.621094-16.375 15.027344-2.640624 7.402344-1.457031 15.636719 3.167969 21.996094-5.046875 5.175781-9.277343 11.085937-12.554687 17.527344-3.273438-6.441407-7.503906-12.351563-12.550782-17.527344 4.621094-6.359375 5.808594-14.59375 3.164063-21.996094-2.640625-7.40625-8.765625-13.03125-16.371094-15.027344 4.804688-11.789062-.523437-25.269531-12.089843-30.59375 6.0625-8.554687 7.515624-19.546875 3.886718-29.378906-3.628906-9.835938-11.875-17.25-22.039062-19.820312v-9.136719c0-4.417969-3.582032-8-8-8-4.417969 0-8 3.582031-8 8v9.136719c-10.164063 2.570312-18.40625 9.984374-22.035156 19.820312-3.628907 9.832031-2.175782 20.824219 3.882812 29.378906-11.5625 5.324219-16.890625 18.804688-12.085938 30.59375-7.578124 1.996094-13.691406 7.589844-16.347656 14.964844s-1.515625 15.585938 3.050782 21.953125c-8.375 8.625-14.472657 19.195313-17.75 30.761719-4.292969 15.121094-3.449219 31.242187 2.398437 45.832031-12.011719 4.164063-21.589844 13.398437-26.1875 25.253906-4.59375 11.855469-3.75 25.128907 2.316406 36.304688h-13.242187c-2.351563 0-4.582032 1.039062-6.101563 2.832031-1.519531 1.796875-2.171875 4.167969-1.785156 6.488281l12.6875 75.945313c2.535156 15.4375 15.886719 26.757812 31.527344 26.734375zm323.671875-352c8.839844 0 16 7.164062 16 16 0 8.835937-7.160156 16-16 16-8.835938 0-16-7.164063-16-16 0-8.835938 7.164062-16 16-16zm-16 48h32c4.417968 0 8 3.582031 8 8s-3.582032 8-8 8h-32c-4.417969 0-8-3.582031-8-8s3.582031-8 8-8zm-16 32h64c4.417968 0 8 3.582031 8 8s-3.582032 8-8 8h-64c-4.417969 0-8-3.582031-8-8s3.582031-8 8-8zm-6.109375 31.113281c1.988281.5625 4.042969.859375 6.109375.886719h64c2.066406-.027344 4.117187-.324219 6.105468-.886719 6.222657 5.773438 11.046876 12.886719 14.113282 20.800781l-.203125.160157c-.292969.214843-.589844.390624-.886719.589843-.691406.472657-1.40625.90625-2.144531 1.304688-.359375.183593-.734375.359375-1.109375.519531-.777344.328125-1.582032.597656-2.402344.800781-.382812.105469-.75.222657-1.167969.304688-1.417969.273437-2.859375.410156-4.304687.40625-5.644532.050781-11.066406-2.203125-15.007813-6.246094-14.132812-13.003906-35.875-13.003906-50.007812 0-3.933594 4.039063-9.34375 6.296875-14.984375 6.246094-1.449219.003906-2.894532-.132813-4.320313-.40625-.40625-.082031-.796875-.199219-1.15625-.304688-.824219-.199219-1.625-.46875-2.402343-.800781-.367188-.160156-.734376-.328125-1.085938-.511719-.765625-.402343-1.503906-.851562-2.21875-1.34375-.253906-.175781-.519531-.328125-.800781-.511719l-.230469-.183593c3.0625-7.921875 7.886719-15.042969 14.105469-20.824219zm-17.769531 37.351562.265624.121094c.566407.277344 1.183594.519532 1.789063.800782.472656.199218.929687.40625 1.433594.589843.65625.242188 1.375.433594 2.082031.640625.519531.144532 1 .3125 1.542969.441406.800781.191407 1.742187.328126 2.648437.460938.488282.082031.933594.1875 1.445313.25 1.554687.164062 3.113281.242188 4.671875.230469 9.277344.070312 18.222656-3.417969 25-9.75 3.925781-4.03125 9.328125-6.289063 14.953125-6.25 5.644531-.023438 11.0625 2.226562 15.023437 6.25 6.785156 6.335937 15.742188 9.828125 25.023438 9.75 1.554687.003906 3.105468-.085938 4.648437-.261719.511719-.058594.96875-.167969 1.457031-.242188.902344-.144531 1.816407-.269531 2.648438-.464843.550781-.132813 1.054688-.300781 1.601562-.460938.6875-.199219 1.390626-.386719 2.039063-.617187.648437-.230469 1.039063-.425782 1.550781-.640625.511719-.214844 1.128906-.464844 1.648438-.71875.105468-.054688.222656-.097657.328125-.144531.078125 1.183593.121093 2.398437.121093 3.550781-.046874 8.351562-1.960937 16.582031-5.601562 24.097656-1.828125.085937-3.652344.289063-5.457031.609375-28.742188 5.183594-58.039063 9.023438-87.605469 11.558594-8.632812-10.113282-13.375-22.96875-13.378906-36.265625 0-1.167969.042968-2.351563.121094-3.535157zm-8.121094 36.457032c.800781 1.597656 1.707031 3.199218 2.664062 4.800781-1.871094.125-3.734375.214844-5.597656.335937 1.0625-1.699218 2.0625-3.394531 2.933594-5.136718zm-64-184.921875c8.839844 0 16 7.164062 16 16 0 8.835937-7.160156 16-16 16-8.835938 0-16-7.164063-16-16 0-8.835938 7.164062-16 16-16zm-16 48h32c4.417968 0 8 3.582031 8 8s-3.582032 8-8 8h-32c-4.417969 0-8-3.582031-8-8s3.582031-8 8-8zm-16 32h64c4.417968 0 8 3.582031 8 8s-3.582032 8-8 8h-64c-4.417969 0-8-3.582031-8-8s3.582031-8 8-8zm-6.101563 31.113281c1.988281.5625 4.039063.859375 6.101563.886719h64c2.070312-.027344 4.125-.324219 6.113281-.886719 6.214844 5.777344 11.035156 12.890625 14.105469 20.800781l-.203125.160157c-.300781.214843-.597657.398437-.902344.597656-.679687.46875-1.390625.902344-2.121094 1.289062-.367187.191406-.742187.367188-1.125.535156-.78125.328126-1.582031.59375-2.402343.800782-.390626.105468-.757813.222656-1.175782.304687-1.414062.269531-2.847656.402344-4.289062.398438-5.644532.050781-11.066406-2.203125-15.007813-6.246094-14.132812-13.003906-35.875-13.003906-50.007812 0-3.933594 4.039063-9.34375 6.296875-14.984375 6.246094-1.449219.003906-2.894532-.132813-4.320313-.40625-.40625-.082031-.796875-.199219-1.15625-.304688-.824219-.199219-1.625-.46875-2.402343-.800781-.367188-.160156-.734376-.328125-1.085938-.511719-.765625-.402343-1.503906-.851562-2.21875-1.34375-.253906-.175781-.519531-.328125-.800781-.511719l-.230469-.183593c3.0625-7.921875 7.886719-15.042969 14.113281-20.824219zm-17.777343 37.351562.265624.121094c.566407.277344 1.183594.519532 1.789063.800782.472656.199218.929687.40625 1.433594.589843.65625.242188 1.375.433594 2.082031.640625.519531.144532 1 .3125 1.542969.441406.800781.191407 1.742187.328126 2.648437.460938.488282.082031.933594.1875 1.445313.25 1.554687.164062 3.113281.242188 4.671875.230469 9.277344.070312 18.222656-3.417969 25-9.75 3.925781-4.03125 9.328125-6.289063 14.953125-6.25 5.644531-.023438 11.0625 2.226562 15.023437 6.25 6.785156 6.335937 15.742188 9.828125 25.023438 9.75 1.554687.003906 3.105468-.085938 4.648437-.261719.511719-.058594.96875-.167969 1.457031-.242188.902344-.144531 1.816407-.269531 2.648438-.464843.550781-.132813 1.054688-.300781 1.601562-.460938.6875-.199219 1.390626-.386719 2.039063-.617187.648437-.230469 1.039063-.425782 1.550781-.640625.511719-.214844 1.128906-.464844 1.648438-.71875.105468-.054688.222656-.097657.328125-.144531.078125 1.183593.121093 2.398437.121093 3.550781.027344 14.621093-5.703124 28.664062-15.945312 39.097656-26.671875 1.0625-53.441406 1.0625-80.113281 0-10.257813-10.425781-16-24.46875-15.984375-39.097656 0-1.167969.042968-2.351563.121094-3.535157zm-8.121094 36.457032c.898437 1.742187 1.898437 3.4375 2.945312 5.109375-1.871094-.117188-3.734375-.207031-5.601562-.335938.929687-1.550781 1.800781-3.148437 2.65625-4.773437zm-64-184.921875c8.839844 0 16 7.164062 16 16 0 8.835937-7.160156 16-16 16-8.835938 0-16-7.164063-16-16 0-8.835938 7.164062-16 16-16zm-16 48h32c4.417968 0 8 3.582031 8 8s-3.582032 8-8 8h-32c-4.417969 0-8-3.582031-8-8s3.582031-8 8-8zm-16 32h64c4.417968 0 8 3.582031 8 8s-3.582032 8-8 8h-64c-4.417969 0-8-3.582031-8-8s3.582031-8 8-8zm-6.054688 31.128906c1.972656.550781 4.007813.84375 6.054688.871094h64c2.066406-.027344 4.117187-.324219 6.105468-.886719 6.222657 5.773438 11.046876 12.886719 14.113282 20.800781l-.203125.160157c-.300781.214843-.597657.398437-.902344.597656-.679687.46875-1.390625.902344-2.121094 1.289062-.367187.191406-.742187.367188-1.125.535156-.78125.328126-1.582031.59375-2.402343.800782-.390626.105468-.757813.222656-1.175782.304687-1.414062.269531-2.847656.402344-4.289062.398438-5.644532.050781-11.066406-2.203125-15.007813-6.246094-14.132812-13.003906-35.875-13.003906-50.007812 0-3.933594 4.039063-9.34375 6.296875-14.984375 6.246094-1.449219.003906-2.894532-.132813-4.320313-.40625-.40625-.082031-.796875-.199219-1.148437-.296875-.824219-.199219-1.625-.46875-2.402344-.800782-.367188-.160156-.734375-.328124-1.085938-.511718-.757812-.394532-1.492187-.839844-2.195312-1.328125-.269531-.183594-.542969-.34375-.796875-.542969l-.21875-.160156c3.082031-7.914063 7.90625-15.03125 14.113281-20.824219zm-17.824218 37.335937.265624.121094c.566407.277344 1.183594.519532 1.789063.800782.472656.199218.929687.40625 1.433594.589843.65625.242188 1.375.433594 2.082031.640625.519531.144532 1 .3125 1.542969.441406.800781.191407 1.742187.328126 2.648437.460938.488282.082031.933594.1875 1.445313.25 1.554687.164062 3.113281.242188 4.671875.230469 9.277344.070312 18.222656-3.417969 25-9.75 3.925781-4.03125 9.328125-6.289063 14.953125-6.25 5.644531-.023438 11.0625 2.226562 15.023437 6.25 6.785156 6.335937 15.742188 9.828125 25.023438 9.75 1.554687.003906 3.105468-.085938 4.648437-.261719.511719-.058594.96875-.167969 1.457031-.242188.902344-.144531 1.816407-.269531 2.648438-.464843.550781-.132813 1.054688-.300781 1.601562-.460938.6875-.199219 1.390626-.386719 2.039063-.617187.648437-.230469 1.039063-.425782 1.550781-.640625.511719-.214844 1.128906-.464844 1.648438-.71875.105468-.054688.222656-.097657.328125-.144531.078125 1.183593.121093 2.398437.121093 3.550781-.003906 13.292969-4.746093 26.152343-13.371093 36.265625-29.597657-2.535156-58.871094-6.402344-87.613281-11.558594-1.800782-.320312-3.621094-.523438-5.449219-.609375-3.644531-7.511719-5.5625-15.746094-5.609375-24.097656 0-1.167969.042968-2.351563.121094-3.535157zm-14.304688 49.886719c6.203125-5.191406 14.394531-7.355469 22.351562-5.902343 116.3125 20.640624 235.351563 20.640624 351.664063 0 12.128906-2.21875 24.238281 3.980468 29.523437 15.121093 5.289063 11.136719 2.433594 24.4375-6.953124 32.429688h-396.921876c-6.078124-5.234375-9.542968-12.878907-9.480468-20.902344.066406-8.019531 3.65625-15.609375 9.816406-20.746094zm420.738281 57.648438-11.097656 66.632812c-1.269531 7.726563-7.953125 13.390625-15.785156 13.367188h-391.34375c-7.828125.023437-14.515625-5.640625-15.78125-13.367188l-11.097657-66.632812zm0 0"/><path d="m303.996094 352.480469h16c4.417968 0 8-3.582031 8-8s-3.582032-8-8-8h-16c-4.417969 0-8 3.582031-8 8s3.582031 8 8 8zm0 0"/><path d="m351.996094 352.480469h76.890625c3.910156.003906 7.25-2.820313 7.894531-6.679688l5.335938-32c.730468-4.359375-2.214844-8.480469-6.570313-9.210937-4.359375-.730469-8.484375 2.214844-9.214844 6.570312l-4.214843 25.320313h-70.121094c-4.417969 0-8 3.582031-8 8s3.582031 8 8 8zm0 0"/><path d="m55.996094 352.480469h216c4.417968 0 8-3.582031 8-8s-3.582032-8-8-8h-216c-4.417969 0-8 3.582031-8 8s3.582031 8 8 8zm0 0"/></svg>