<?xml version="1.0" encoding="iso-8859-1"?>
<!-- Generator: Adobe Illustrator 19.0.0, SVG Export Plug-In . SVG Version: 6.00 Build 0)  -->
<svg version="1.1" id="Capa_1" xmlns="http://www.w3.org/2000/svg" xmlns:xlink="http://www.w3.org/1999/xlink" x="0px" y="0px"
	 viewBox="0 0 511.999 511.999" style="enable-background:new 0 0 511.999 511.999;" xml:space="preserve">
<path style="fill:#00DDC0;" d="M452.545,156.841c-30.15,27.477-66.757,32.633-66.757,32.633l46.824,14.361
	c-34.039,44.074-85.209,90.483-162.045,132.406l-62.24-3.388c0,0,18.41,13.722,26.656,21.574
	c-9.301,4.453-18.943,8.843-28.914,13.157l-34.934-12.06l11.315,21.872c-36.297,14.5-76.729,28.009-121.774,40.154
	c0,0-20.839-143.721,62.772-259.315l17.824,26.081l4.922-53.866c16.151-17.462,35.19-33.848,57.638-48.475
	C379.066-32.266,499.241,19.054,499.241,19.054S519.835,95.518,452.545,156.841z"/>
<g>
	<path style="fill:#00BA9F;" d="M234.982,354.427c-9.299,4.449-18.938,8.839-28.916,13.158l-22.067-7.619
		c11.459-5.099,28.396-12.748,37.465-16.978C226.353,346.878,231.553,351.158,234.982,354.427z"/>
	<path style="fill:#00BA9F;" d="M432.607,203.836c-34.036,44.074-85.209,90.478-162.039,132.403l-32.176-1.75
		c61.762-32.986,141.672-94.248,177.637-135.733L432.607,203.836z"/>
	<path style="fill:#00BA9F;" d="M182.449,377.394c-36.295,14.508-76.73,28.016-121.775,40.155c0,0-0.82-5.629-1.48-15.558
		c39.445-10.979,82.989-25.427,116.195-38.235L182.449,377.394z"/>
</g>
<path style="fill:#6EF4D4;" d="M501.348,31.478C487.26,26.259,375.104-9.726,211.435,96.98
	c-22.447,14.618-39.485,29.006-55.633,46.474l-3,42.505c-0.67,9.569-12.808,13.238-18.668,5.639l-11.079-14.358
	c-33.356,46.114-51.233,96.338-60.662,140.052c6.589-48.044,23.017-106.456,61.052-159.05l17.828,26.077l4.919-53.863
	c16.148-17.468,35.186-33.856,57.633-48.474C379.064-32.264,499.239,19.06,499.239,19.06S500.479,23.649,501.348,31.478z"/>
<path d="M338.922,283.933c-21.286,15.805-44.854,30.838-70.082,44.704l-60.105-3.272c-3.299-0.15-6.332,1.826-7.458,4.935
	c-1.126,3.109-0.083,6.59,2.57,8.566c0.129,0.096,9.4,7.016,17.522,13.672c-5.119,2.36-10.337,4.701-15.612,7.006l-32.174-11.109
	c-2.902-1-6.116-0.135-8.12,2.185c-2.006,2.32-2.397,5.626-0.988,8.351l7.499,14.496c-31.069,12.09-64.511,23.191-99.682,33.101
	c9.712-15.084,20.768-31.321,33.228-48.321c35.949-49.051,76.307-94.664,119.955-135.572
	c54.535-51.113,114.385-94.98,177.889-130.382c3.618-2.017,4.915-6.584,2.899-10.202c-2.018-3.617-6.584-4.914-10.202-2.898
	c-64.572,35.998-125.416,80.592-180.842,132.54c-44.322,41.541-85.3,87.852-121.796,137.648
	c-10.004,13.65-19.099,26.774-27.331,39.205c-0.818-26.997,0.641-70.748,13.396-118.537c1.068-4.001-1.31-8.11-5.311-9.179
	c-4-1.071-8.111,1.31-9.18,5.312c-17.498,65.56-14.668,122.736-12.708,143.856c-33.321,53.318-48.583,89.56-49.422,91.574
	c-1.592,3.824,0.217,8.214,4.041,9.806c0.942,0.393,1.918,0.578,2.879,0.578c2.938,0,5.726-1.737,6.926-4.618
	c0.191-0.46,14.062-33.399,43.979-82.331c0.647-0.001,1.298-0.085,1.936-0.258c43.674-11.776,84.924-25.38,122.603-40.432
	c1.965-0.785,3.507-2.363,4.245-4.345s0.606-4.185-0.366-6.064l-2.701-5.219l17.212,5.942c1.771,0.61,3.707,0.539,5.426-0.207
	c9.986-4.321,19.801-8.789,29.174-13.276c2.224-1.065,3.783-3.155,4.168-5.59c0.386-2.436-0.45-4.904-2.236-6.604
	c-2.287-2.178-5.273-4.75-8.432-7.358l38.437,2.093c1.393,0.068,2.776-0.239,4-0.905c26.54-14.48,51.338-30.243,73.705-46.85
	c3.326-2.469,4.019-7.166,1.551-10.491C346.944,282.158,342.248,281.464,338.922,283.933z"/>
<path d="M80.528,240.962c0.868,0.325,1.758,0.479,2.633,0.479c3.036,0,5.893-1.857,7.022-4.866
	c8.79-23.43,19.94-45.292,33.209-65.129l11.689,17.102c1.785,2.612,5.015,3.823,8.077,3.027c3.062-0.795,5.294-3.426,5.582-6.575
	l4.688-51.309c16.038-17.034,34.361-32.309,54.498-45.431c32.822-21.397,66.038-38.382,98.722-50.481
	c3.885-1.438,5.867-5.751,4.429-9.636s-5.752-5.87-9.636-4.429c-33.732,12.485-67.95,29.975-101.706,51.98
	c-21.897,14.269-41.765,30.979-59.049,49.666c-1.123,1.214-1.813,2.764-1.963,4.409l-3.026,33.106l-6.062-8.869
	c-1.377-2.017-3.65-3.235-6.091-3.268c-0.034-0.001-0.067-0.001-0.101-0.001c-2.404,0-4.664,1.153-6.076,3.104
	c-16.776,23.193-30.648,49.257-41.23,77.464C74.686,235.184,76.65,239.507,80.528,240.962z"/>
<path d="M506.482,17.105c-0.598-2.221-2.182-4.043-4.296-4.946c-2.614-1.116-65.205-27.029-165.936,0.371
	c-3.996,1.088-6.354,5.208-5.267,9.205c1.087,3.995,5.206,6.353,9.205,5.268c82.284-22.384,138.4-7.09,152.588-2.328
	c1.212,6.584,3.178,21.433,0.83,39.998c-4.228,33.452-19.743,62.596-46.11,86.627c-27.962,25.482-62.42,30.702-62.752,30.75
	c-3.48,0.49-6.153,3.332-6.429,6.835c-0.277,3.504,1.917,6.729,5.276,7.76l36.302,11.135c-15.751,19.22-34.019,37.708-54.424,55.071
	c-3.155,2.685-3.536,7.417-0.852,10.571c1.483,1.743,3.593,2.64,5.714,2.64c1.718,0,3.446-0.587,4.856-1.788
	c24.199-20.591,45.515-42.747,63.36-65.853c1.504-1.948,1.957-4.51,1.211-6.855c-0.746-2.345-2.595-4.175-4.947-4.896l-22.404-6.871
	c13.331-5.079,29.98-13.55,45.189-27.412c36.459-33.226,47.844-70.83,50.974-96.525C511.971,37.949,506.708,17.943,506.482,17.105z"
	/>
<path d="M240.048,256.972c-4.141,0-7.499,3.357-7.499,7.499c0,4.142,3.358,7.499,7.499,7.499h0.75c4.141,0,7.499-3.357,7.499-7.499
	c0-4.142-3.358-7.499-7.499-7.499H240.048z"/>
<path d="M110.76,282.53c-4.141,0-7.499,3.357-7.499,7.499c0,4.142,3.358,7.499,7.499,7.499h0.75c4.141,0,7.499-3.357,7.499-7.499
	c0-4.142-3.358-7.499-7.499-7.499H110.76z"/>
<path d="M257.9,274.825c-4.141,0-7.499,3.357-7.499,7.499c0,4.142,3.358,7.499,7.499,7.499h0.75c4.141,0,7.499-3.357,7.499-7.499
	c0-4.142-3.358-7.499-7.499-7.499H257.9z"/>
<path d="M394.982,124.823c-4.141,0-7.499,3.357-7.499,7.499c0,4.142,3.358,7.499,7.499,7.499h0.75c4.141,0,7.499-3.357,7.499-7.499
	c0-4.142-3.358-7.499-7.499-7.499H394.982z"/>
<path d="M292.745,87.551c4.141,0,7.499-3.357,7.499-7.499s-3.358-7.499-7.499-7.499h-0.75c-4.141,0-7.499,3.357-7.499,7.499
	s3.358,7.499,7.499,7.499H292.745z"/>
<path d="M283.148,93.584c-4.141,0-7.499,3.357-7.499,7.499s3.358,7.499,7.499,7.499h0.75c4.141,0,7.499-3.357,7.499-7.499
	s-3.358-7.499-7.499-7.499H283.148z"/>
<path d="M330.99,99.191h0.75c4.141,0,7.499-3.357,7.499-7.499s-3.358-7.499-7.499-7.499h-0.75c-4.141,0-7.499,3.357-7.499,7.499
	S326.849,99.191,330.99,99.191z"/>
<g>
</g>
<g>
</g>
<g>
</g>
<g>
</g>
<g>
</g>
<g>
</g>
<g>
</g>
<g>
</g>
<g>
</g>
<g>
</g>
<g>
</g>
<g>
</g>
<g>
</g>
<g>
</g>
<g>
</g>
</svg>
