<?xml version="1.0" encoding="iso-8859-1"?>
<!-- Generator: Adobe Illustrator 19.0.0, SVG Export Plug-In . SVG Version: 6.00 Build 0)  -->
<svg version="1.1" id="Capa_1" xmlns="http://www.w3.org/2000/svg" xmlns:xlink="http://www.w3.org/1999/xlink" x="0px" y="0px"
	 viewBox="0 0 480 480" style="enable-background:new 0 0 480 480;" xml:space="preserve">
<path style="fill:#C1DFF7;" d="M325.286,466.304c0.64-0.744,1.192-1.56,1.688-2.408c0.072-0.128,0.16-0.248,0.232-0.376
	c0.424-0.776,0.752-1.616,1.048-2.464c0.072-0.208,0.168-0.4,0.232-0.616c0.304-1.048,0.52-2.136,0.608-3.272l5.512-75.352l0,0
	L351.999,144h-200h200h16c4.416,0,8-3.584,8-8v-16h-272v16c0,4.416,3.584,8,8,8h16l7.608,104l0,0l4.664,63.744l10.64,145.424
	c0.616,8.36,7.576,14.832,15.96,14.832h146.256c3.664,0,7.024-1.288,9.736-3.384c0.848-0.656,1.624-1.4,2.336-2.208
	C325.223,466.376,325.255,466.344,325.286,466.304z M131.51,192h216.976H131.51z M295.999,232h-16H295.999z M247.998,224h-16
	H247.998z M207.998,248h-16H207.998z M159.998,216h16H159.998z M183.998,288h-16H183.998z M304.527,440.568
	c-0.296,4.192-3.776,7.432-7.976,7.432H175.998h120.552C300.751,448,304.23,444.76,304.527,440.568L311.999,336L304.527,440.568z"/>
<g>
	<path style="fill:#6A9FD3;" d="M303.999,48h-16v16c0,8.84-7.16,16-16,16h-64c-8.84,0-16-7.16-16-16V48h-16
		c-39.768,0-72,32.232-72,72h272C375.999,80.232,343.767,48,303.999,48z"/>
	<rect x="223.998" y="8" style="fill:#6A9FD3;" width="32" height="40"/>
	<path style="fill:#6A9FD3;" d="M207.998,80h64c8.84,0,16-7.16,16-16V48V24c0-8.84-7.16-16-16-16h-16v40h-32V8h-16
		c-8.84,0-16,7.16-16,16v24v16C191.998,72.84,199.158,80,207.998,80z"/>
</g>
<path style="fill:#E8B408;" d="M457.398,249.968l6.6-65.968l-32,16l-16.064,42.832c-14.6,5.672-25.248,19.4-26.216,35.928
	l-3.36,57.088c-1.368,23.232-19.2,42.136-42.312,44.856l-9.456,1.112l-5.512,75.352c-0.08,1.128-0.304,2.216-0.608,3.272
	c-0.064,0.216-0.16,0.408-0.232,0.616c-0.288,0.856-0.624,1.68-1.048,2.464c-0.072,0.128-0.152,0.248-0.232,0.376
	c-0.488,0.856-1.048,1.656-1.688,2.408c-0.032,0.032-0.064,0.072-0.096,0.104c-0.704,0.816-1.48,1.552-2.336,2.208l0,0L335.151,472
	c31.592,0,62.208-10.928,86.656-30.936l0,0c31.768-25.992,50.192-64.872,50.192-105.912v-53.976
	C471.999,268.624,466.263,257.52,457.398,249.968z"/>
<path style="fill:#DCEDF9;" d="M7.998,248l24,224h96l14.264-133.104l-1.984-27.152L135.606,248H7.998z M11.43,280h100.568H11.43z"/>
<g>
	<path style="fill:#222426;" d="M304.022,335.432L296.551,440H175.998v16h120.552c8.36,0,15.368-6.528,15.952-14.856l7.472-104.568
		L304.022,335.432z"/>
	<path style="fill:#222426;" d="M471.958,184.8c0.288-2.904-1.024-5.728-3.424-7.384c-2.408-1.648-5.504-1.88-8.12-0.568l-32,16
		c-1.808,0.904-3.2,2.456-3.912,4.344l-14.864,39.656c-16.032,7.672-26.848,23.56-27.904,41.448l-3.36,57.088
		c-1.136,19.328-15.888,35-35.088,37.336L359.439,152h8.56c8.824,0,16-7.176,16-16v-16c0-44.112-35.888-80-80-80h-8V24
		c0-13.232-10.768-24-24-24h-64c-13.232,0-24,10.768-24,24v16h-8c-44.112,0-80,35.888-80,80v16c0,8.824,7.176,16,16,16h8.56l6.44,88
		h-119c-2.272,0-4.432,0.968-5.952,2.656c-1.512,1.688-2.24,3.944-2,6.2l24,224c0.44,4.064,3.864,7.144,7.952,7.144h96
		c4.088,0,7.512-3.08,7.952-7.152l4.808-44.864l2.176,29.768C143.838,470.224,154.358,480,166.87,480h146.248
		c3.928,0,7.608-1.056,10.912-2.76l8.992,2.472c0.696,0.192,1.408,0.288,2.128,0.288c33.344,0,65.92-11.632,91.728-32.744
		c33.76-27.624,53.12-68.48,53.12-112.104v-53.976c0-12.848-5.144-25.152-14.24-34.352L471.958,184.8z M120.814,464H39.182
		L20.334,288h91.664v-16H18.622l-1.712-16h111.264l6.056,82.76L120.814,464z M231.998,16h16v24h-16V16z M199.998,24
		c0-4.408,3.584-8,8-8h8v32c0,4.416,3.576,8,8,8h32c4.424,0,8-3.584,8-8V16h8c4.416,0,8,3.592,8,8v24v16c0,4.408-3.584,8-8,8h-64
		c-4.416,0-8-3.592-8-8V48V24z M175.998,56h8v8c0,13.232,10.768,24,24,24h64c13.232,0,24-10.768,24-24v-8h8
		c32.576,0,59.552,24.472,63.504,56h-255C116.446,80.472,143.422,56,175.998,56z M111.998,136v-8h256v8h-16h-200v16h191.392
		l-2.344,32H138.942l-2.968-40.584c-0.304-4.184-3.784-7.416-7.976-7.416H111.998z M166.87,464c-4.168,0-7.68-3.256-7.984-7.416
		L140.118,200h199.768l-18.776,256.584c-0.08,1.096-0.4,2.128-0.912,3.08c-0.064,0.12-0.176,0.208-0.248,0.328
		c-0.488,0.808-1.104,1.552-1.888,2.176c-1.376,1.104-3.064,1.832-4.936,1.832H166.87z M463.999,335.152
		c0,38.808-17.224,75.16-47.256,99.728c-22.68,18.56-51.232,28.872-80.528,29.12l-0.432-0.12c0.064-0.176,0.056-0.376,0.12-0.552
		c0.576-1.776,1.016-3.616,1.16-5.552c0-0.008,0-0.008,0-0.016l5.04-68.768l2.888-0.336c27-3.176,47.76-25.184,49.352-52.328
		l3.36-57.088c0.768-12.888,9.056-24.256,21.136-28.944c2.128-0.824,3.792-2.512,4.592-4.648l14.96-39.888l16.2-8.104l-5.152,51.528
		c-0.256,2.616,0.776,5.184,2.776,6.888c7.488,6.368,11.784,15.52,11.784,25.104V335.152z"/>
	<rect x="159.998" y="208" style="fill:#222426;" width="16" height="16"/>
	<rect x="191.998" y="240" style="fill:#222426;" width="16" height="16"/>
	<rect x="231.998" y="216" style="fill:#222426;" width="16" height="16"/>
	<rect x="279.999" y="224" style="fill:#222426;" width="16" height="16"/>
	<rect x="167.998" y="280" style="fill:#222426;" width="16" height="16"/>
</g>
<g>
</g>
<g>
</g>
<g>
</g>
<g>
</g>
<g>
</g>
<g>
</g>
<g>
</g>
<g>
</g>
<g>
</g>
<g>
</g>
<g>
</g>
<g>
</g>
<g>
</g>
<g>
</g>
<g>
</g>
</svg>
